%TF.GenerationSoftware,KiCad,Pcbnew,(5.1.10)-1*%
%TF.CreationDate,2021-11-07T17:04:32-05:00*%
%TF.ProjectId,kicad,6b696361-642e-46b6-9963-61645f706362,rev?*%
%TF.SameCoordinates,Original*%
%TF.FileFunction,Soldermask,Bot*%
%TF.FilePolarity,Negative*%
%FSLAX46Y46*%
G04 Gerber Fmt 4.6, Leading zero omitted, Abs format (unit mm)*
G04 Created by KiCad (PCBNEW (5.1.10)-1) date 2021-11-07 17:04:32*
%MOMM*%
%LPD*%
G01*
G04 APERTURE LIST*
%ADD10R,1.130000X1.130000*%
%ADD11C,1.130000*%
%ADD12R,1.700000X1.700000*%
%ADD13O,1.700000X1.700000*%
G04 APERTURE END LIST*
D10*
%TO.C,U3*%
X201930000Y-138270000D03*
D11*
X199390000Y-138270000D03*
X196850000Y-138270000D03*
X194310000Y-138270000D03*
X194310000Y-146210000D03*
X196850000Y-146210000D03*
X199390000Y-146210000D03*
X201930000Y-146210000D03*
%TD*%
%TO.C,1k2*%
G36*
G01*
X186290000Y-147220000D02*
X186290000Y-147420000D01*
G75*
G02*
X186190000Y-147520000I-100000J0D01*
G01*
X185930000Y-147520000D01*
G75*
G02*
X185830000Y-147420000I0J100000D01*
G01*
X185830000Y-147220000D01*
G75*
G02*
X185930000Y-147120000I100000J0D01*
G01*
X186190000Y-147120000D01*
G75*
G02*
X186290000Y-147220000I0J-100000D01*
G01*
G37*
G36*
G01*
X185650000Y-147220000D02*
X185650000Y-147420000D01*
G75*
G02*
X185550000Y-147520000I-100000J0D01*
G01*
X185290000Y-147520000D01*
G75*
G02*
X185190000Y-147420000I0J100000D01*
G01*
X185190000Y-147220000D01*
G75*
G02*
X185290000Y-147120000I100000J0D01*
G01*
X185550000Y-147120000D01*
G75*
G02*
X185650000Y-147220000I0J-100000D01*
G01*
G37*
%TD*%
D12*
%TO.C,Vin2*%
X226060000Y-114300000D03*
%TD*%
%TO.C,Vin1*%
X156210000Y-93980000D03*
%TD*%
D11*
%TO.C,U2*%
X186690000Y-103980000D03*
X189230000Y-103980000D03*
X191770000Y-103980000D03*
X194310000Y-103980000D03*
X194310000Y-111920000D03*
X191770000Y-111920000D03*
X189230000Y-111920000D03*
D10*
X186690000Y-111920000D03*
%TD*%
D12*
%TO.C,U1*%
X149145001Y-103425001D03*
D13*
X149145001Y-105965001D03*
X149145001Y-108505001D03*
X149145001Y-111045001D03*
X149145001Y-113585001D03*
X149145001Y-116125001D03*
X149145001Y-118665001D03*
X149145001Y-121205001D03*
%TD*%
%TO.C,R8*%
G36*
G01*
X192320000Y-133250000D02*
X192320000Y-133450000D01*
G75*
G02*
X192220000Y-133550000I-100000J0D01*
G01*
X191960000Y-133550000D01*
G75*
G02*
X191860000Y-133450000I0J100000D01*
G01*
X191860000Y-133250000D01*
G75*
G02*
X191960000Y-133150000I100000J0D01*
G01*
X192220000Y-133150000D01*
G75*
G02*
X192320000Y-133250000I0J-100000D01*
G01*
G37*
G36*
G01*
X191680000Y-133250000D02*
X191680000Y-133450000D01*
G75*
G02*
X191580000Y-133550000I-100000J0D01*
G01*
X191320000Y-133550000D01*
G75*
G02*
X191220000Y-133450000I0J100000D01*
G01*
X191220000Y-133250000D01*
G75*
G02*
X191320000Y-133150000I100000J0D01*
G01*
X191580000Y-133150000D01*
G75*
G02*
X191680000Y-133250000I0J-100000D01*
G01*
G37*
%TD*%
D12*
%TO.C,gnd1*%
X168910000Y-137160000D03*
%TD*%
M02*
