%TF.GenerationSoftware,KiCad,Pcbnew,(5.1.10)-1*%
%TF.CreationDate,2021-11-07T17:04:32-05:00*%
%TF.ProjectId,kicad,6b696361-642e-46b6-9963-61645f706362,rev?*%
%TF.SameCoordinates,Original*%
%TF.FileFunction,Paste,Top*%
%TF.FilePolarity,Positive*%
%FSLAX46Y46*%
G04 Gerber Fmt 4.6, Leading zero omitted, Abs format (unit mm)*
G04 Created by KiCad (PCBNEW (5.1.10)-1) date 2021-11-07 17:04:32*
%MOMM*%
%LPD*%
G01*
G04 APERTURE LIST*
G04 APERTURE END LIST*
%TO.C,R9*%
G36*
G01*
X220214000Y-138329500D02*
X220214000Y-138530500D01*
G75*
G02*
X220134500Y-138610000I-79500J0D01*
G01*
X219975500Y-138610000D01*
G75*
G02*
X219896000Y-138530500I0J79500D01*
G01*
X219896000Y-138329500D01*
G75*
G02*
X219975500Y-138250000I79500J0D01*
G01*
X220134500Y-138250000D01*
G75*
G02*
X220214000Y-138329500I0J-79500D01*
G01*
G37*
G36*
G01*
X219524000Y-138329500D02*
X219524000Y-138530500D01*
G75*
G02*
X219444500Y-138610000I-79500J0D01*
G01*
X219285500Y-138610000D01*
G75*
G02*
X219206000Y-138530500I0J79500D01*
G01*
X219206000Y-138329500D01*
G75*
G02*
X219285500Y-138250000I79500J0D01*
G01*
X219444500Y-138250000D01*
G75*
G02*
X219524000Y-138329500I0J-79500D01*
G01*
G37*
%TD*%
%TO.C,R6*%
G36*
G01*
X186186000Y-125830500D02*
X186186000Y-125629500D01*
G75*
G02*
X186265500Y-125550000I79500J0D01*
G01*
X186424500Y-125550000D01*
G75*
G02*
X186504000Y-125629500I0J-79500D01*
G01*
X186504000Y-125830500D01*
G75*
G02*
X186424500Y-125910000I-79500J0D01*
G01*
X186265500Y-125910000D01*
G75*
G02*
X186186000Y-125830500I0J79500D01*
G01*
G37*
G36*
G01*
X186876000Y-125830500D02*
X186876000Y-125629500D01*
G75*
G02*
X186955500Y-125550000I79500J0D01*
G01*
X187114500Y-125550000D01*
G75*
G02*
X187194000Y-125629500I0J-79500D01*
G01*
X187194000Y-125830500D01*
G75*
G02*
X187114500Y-125910000I-79500J0D01*
G01*
X186955500Y-125910000D01*
G75*
G02*
X186876000Y-125830500I0J79500D01*
G01*
G37*
%TD*%
%TO.C,R5*%
G36*
G01*
X186589500Y-114806000D02*
X186790500Y-114806000D01*
G75*
G02*
X186870000Y-114885500I0J-79500D01*
G01*
X186870000Y-115044500D01*
G75*
G02*
X186790500Y-115124000I-79500J0D01*
G01*
X186589500Y-115124000D01*
G75*
G02*
X186510000Y-115044500I0J79500D01*
G01*
X186510000Y-114885500D01*
G75*
G02*
X186589500Y-114806000I79500J0D01*
G01*
G37*
G36*
G01*
X186589500Y-114116000D02*
X186790500Y-114116000D01*
G75*
G02*
X186870000Y-114195500I0J-79500D01*
G01*
X186870000Y-114354500D01*
G75*
G02*
X186790500Y-114434000I-79500J0D01*
G01*
X186589500Y-114434000D01*
G75*
G02*
X186510000Y-114354500I0J79500D01*
G01*
X186510000Y-114195500D01*
G75*
G02*
X186589500Y-114116000I79500J0D01*
G01*
G37*
%TD*%
%TO.C,r4*%
G36*
G01*
X189129500Y-116336000D02*
X189330500Y-116336000D01*
G75*
G02*
X189410000Y-116415500I0J-79500D01*
G01*
X189410000Y-116574500D01*
G75*
G02*
X189330500Y-116654000I-79500J0D01*
G01*
X189129500Y-116654000D01*
G75*
G02*
X189050000Y-116574500I0J79500D01*
G01*
X189050000Y-116415500D01*
G75*
G02*
X189129500Y-116336000I79500J0D01*
G01*
G37*
G36*
G01*
X189129500Y-117026000D02*
X189330500Y-117026000D01*
G75*
G02*
X189410000Y-117105500I0J-79500D01*
G01*
X189410000Y-117264500D01*
G75*
G02*
X189330500Y-117344000I-79500J0D01*
G01*
X189129500Y-117344000D01*
G75*
G02*
X189050000Y-117264500I0J79500D01*
G01*
X189050000Y-117105500D01*
G75*
G02*
X189129500Y-117026000I79500J0D01*
G01*
G37*
%TD*%
%TO.C,R3*%
G36*
G01*
X181106000Y-111860500D02*
X181106000Y-111659500D01*
G75*
G02*
X181185500Y-111580000I79500J0D01*
G01*
X181344500Y-111580000D01*
G75*
G02*
X181424000Y-111659500I0J-79500D01*
G01*
X181424000Y-111860500D01*
G75*
G02*
X181344500Y-111940000I-79500J0D01*
G01*
X181185500Y-111940000D01*
G75*
G02*
X181106000Y-111860500I0J79500D01*
G01*
G37*
G36*
G01*
X181796000Y-111860500D02*
X181796000Y-111659500D01*
G75*
G02*
X181875500Y-111580000I79500J0D01*
G01*
X182034500Y-111580000D01*
G75*
G02*
X182114000Y-111659500I0J-79500D01*
G01*
X182114000Y-111860500D01*
G75*
G02*
X182034500Y-111940000I-79500J0D01*
G01*
X181875500Y-111940000D01*
G75*
G02*
X181796000Y-111860500I0J79500D01*
G01*
G37*
%TD*%
%TO.C,R2*%
G36*
G01*
X162056000Y-100430500D02*
X162056000Y-100229500D01*
G75*
G02*
X162135500Y-100150000I79500J0D01*
G01*
X162294500Y-100150000D01*
G75*
G02*
X162374000Y-100229500I0J-79500D01*
G01*
X162374000Y-100430500D01*
G75*
G02*
X162294500Y-100510000I-79500J0D01*
G01*
X162135500Y-100510000D01*
G75*
G02*
X162056000Y-100430500I0J79500D01*
G01*
G37*
G36*
G01*
X162746000Y-100430500D02*
X162746000Y-100229500D01*
G75*
G02*
X162825500Y-100150000I79500J0D01*
G01*
X162984500Y-100150000D01*
G75*
G02*
X163064000Y-100229500I0J-79500D01*
G01*
X163064000Y-100430500D01*
G75*
G02*
X162984500Y-100510000I-79500J0D01*
G01*
X162825500Y-100510000D01*
G75*
G02*
X162746000Y-100430500I0J79500D01*
G01*
G37*
%TD*%
%TO.C,R1*%
G36*
G01*
X154436000Y-100430500D02*
X154436000Y-100229500D01*
G75*
G02*
X154515500Y-100150000I79500J0D01*
G01*
X154674500Y-100150000D01*
G75*
G02*
X154754000Y-100229500I0J-79500D01*
G01*
X154754000Y-100430500D01*
G75*
G02*
X154674500Y-100510000I-79500J0D01*
G01*
X154515500Y-100510000D01*
G75*
G02*
X154436000Y-100430500I0J79500D01*
G01*
G37*
G36*
G01*
X155126000Y-100430500D02*
X155126000Y-100229500D01*
G75*
G02*
X155205500Y-100150000I79500J0D01*
G01*
X155364500Y-100150000D01*
G75*
G02*
X155444000Y-100229500I0J-79500D01*
G01*
X155444000Y-100430500D01*
G75*
G02*
X155364500Y-100510000I-79500J0D01*
G01*
X155205500Y-100510000D01*
G75*
G02*
X155126000Y-100430500I0J79500D01*
G01*
G37*
%TD*%
%TO.C,D2*%
G36*
G01*
X225556000Y-132180500D02*
X225556000Y-131979500D01*
G75*
G02*
X225635500Y-131900000I79500J0D01*
G01*
X225794500Y-131900000D01*
G75*
G02*
X225874000Y-131979500I0J-79500D01*
G01*
X225874000Y-132180500D01*
G75*
G02*
X225794500Y-132260000I-79500J0D01*
G01*
X225635500Y-132260000D01*
G75*
G02*
X225556000Y-132180500I0J79500D01*
G01*
G37*
G36*
G01*
X226246000Y-132180500D02*
X226246000Y-131979500D01*
G75*
G02*
X226325500Y-131900000I79500J0D01*
G01*
X226484500Y-131900000D01*
G75*
G02*
X226564000Y-131979500I0J-79500D01*
G01*
X226564000Y-132180500D01*
G75*
G02*
X226484500Y-132260000I-79500J0D01*
G01*
X226325500Y-132260000D01*
G75*
G02*
X226246000Y-132180500I0J79500D01*
G01*
G37*
%TD*%
%TO.C,D1*%
G36*
G01*
X226564000Y-120549500D02*
X226564000Y-120750500D01*
G75*
G02*
X226484500Y-120830000I-79500J0D01*
G01*
X226325500Y-120830000D01*
G75*
G02*
X226246000Y-120750500I0J79500D01*
G01*
X226246000Y-120549500D01*
G75*
G02*
X226325500Y-120470000I79500J0D01*
G01*
X226484500Y-120470000D01*
G75*
G02*
X226564000Y-120549500I0J-79500D01*
G01*
G37*
G36*
G01*
X225874000Y-120549500D02*
X225874000Y-120750500D01*
G75*
G02*
X225794500Y-120830000I-79500J0D01*
G01*
X225635500Y-120830000D01*
G75*
G02*
X225556000Y-120750500I0J79500D01*
G01*
X225556000Y-120549500D01*
G75*
G02*
X225635500Y-120470000I79500J0D01*
G01*
X225794500Y-120470000D01*
G75*
G02*
X225874000Y-120549500I0J-79500D01*
G01*
G37*
%TD*%
%TO.C,C2*%
G36*
G01*
X200680000Y-121420000D02*
X199580000Y-121420000D01*
G75*
G02*
X199330000Y-121170000I0J250000D01*
G01*
X199330000Y-119070000D01*
G75*
G02*
X199580000Y-118820000I250000J0D01*
G01*
X200680000Y-118820000D01*
G75*
G02*
X200930000Y-119070000I0J-250000D01*
G01*
X200930000Y-121170000D01*
G75*
G02*
X200680000Y-121420000I-250000J0D01*
G01*
G37*
G36*
G01*
X200680000Y-125020000D02*
X199580000Y-125020000D01*
G75*
G02*
X199330000Y-124770000I0J250000D01*
G01*
X199330000Y-122670000D01*
G75*
G02*
X199580000Y-122420000I250000J0D01*
G01*
X200680000Y-122420000D01*
G75*
G02*
X200930000Y-122670000I0J-250000D01*
G01*
X200930000Y-124770000D01*
G75*
G02*
X200680000Y-125020000I-250000J0D01*
G01*
G37*
%TD*%
%TO.C,C1*%
G36*
G01*
X181995001Y-104075001D02*
X181995001Y-102975001D01*
G75*
G02*
X182245001Y-102725001I250000J0D01*
G01*
X183945001Y-102725001D01*
G75*
G02*
X184195001Y-102975001I0J-250000D01*
G01*
X184195001Y-104075001D01*
G75*
G02*
X183945001Y-104325001I-250000J0D01*
G01*
X182245001Y-104325001D01*
G75*
G02*
X181995001Y-104075001I0J250000D01*
G01*
G37*
G36*
G01*
X178995001Y-104075001D02*
X178995001Y-102975001D01*
G75*
G02*
X179245001Y-102725001I250000J0D01*
G01*
X180945001Y-102725001D01*
G75*
G02*
X181195001Y-102975001I0J-250000D01*
G01*
X181195001Y-104075001D01*
G75*
G02*
X180945001Y-104325001I-250000J0D01*
G01*
X179245001Y-104325001D01*
G75*
G02*
X178995001Y-104075001I0J250000D01*
G01*
G37*
%TD*%
M02*
