%TF.GenerationSoftware,KiCad,Pcbnew,(5.1.10)-1*%
%TF.CreationDate,2021-11-07T21:57:16-05:00*%
%TF.ProjectId,kicad,6b696361-642e-46b6-9963-61645f706362,rev?*%
%TF.SameCoordinates,Original*%
%TF.FileFunction,Legend,Bot*%
%TF.FilePolarity,Positive*%
%FSLAX46Y46*%
G04 Gerber Fmt 4.6, Leading zero omitted, Abs format (unit mm)*
G04 Created by KiCad (PCBNEW (5.1.10)-1) date 2021-11-07 21:57:16*
%MOMM*%
%LPD*%
G01*
G04 APERTURE LIST*
%ADD10C,0.120000*%
%ADD11C,0.150000*%
G04 APERTURE END LIST*
D10*
%TO.C,C2*%
X204190000Y-100050000D02*
X202990000Y-100050000D01*
X199670000Y-100050000D02*
X200870000Y-100050000D01*
X199670000Y-96594437D02*
X199670000Y-100050000D01*
X204190000Y-96594437D02*
X204190000Y-100050000D01*
X203125563Y-95530000D02*
X202990000Y-95530000D01*
X200734437Y-95530000D02*
X200870000Y-95530000D01*
X200734437Y-95530000D02*
X199670000Y-96594437D01*
X203125563Y-95530000D02*
X204190000Y-96594437D01*
X200370000Y-94790000D02*
X200370000Y-95290000D01*
X200120000Y-95040000D02*
X200620000Y-95040000D01*
%TO.C,R6*%
D11*
X185266666Y-95482380D02*
X185600000Y-95006190D01*
X185838095Y-95482380D02*
X185838095Y-94482380D01*
X185457142Y-94482380D01*
X185361904Y-94530000D01*
X185314285Y-94577619D01*
X185266666Y-94672857D01*
X185266666Y-94815714D01*
X185314285Y-94910952D01*
X185361904Y-94958571D01*
X185457142Y-95006190D01*
X185838095Y-95006190D01*
X184409523Y-94482380D02*
X184600000Y-94482380D01*
X184695238Y-94530000D01*
X184742857Y-94577619D01*
X184838095Y-94720476D01*
X184885714Y-94910952D01*
X184885714Y-95291904D01*
X184838095Y-95387142D01*
X184790476Y-95434761D01*
X184695238Y-95482380D01*
X184504761Y-95482380D01*
X184409523Y-95434761D01*
X184361904Y-95387142D01*
X184314285Y-95291904D01*
X184314285Y-95053809D01*
X184361904Y-94958571D01*
X184409523Y-94910952D01*
X184504761Y-94863333D01*
X184695238Y-94863333D01*
X184790476Y-94910952D01*
X184838095Y-94958571D01*
X184885714Y-95053809D01*
%TO.C,R5*%
X175426666Y-101002380D02*
X175760000Y-100526190D01*
X175998095Y-101002380D02*
X175998095Y-100002380D01*
X175617142Y-100002380D01*
X175521904Y-100050000D01*
X175474285Y-100097619D01*
X175426666Y-100192857D01*
X175426666Y-100335714D01*
X175474285Y-100430952D01*
X175521904Y-100478571D01*
X175617142Y-100526190D01*
X175998095Y-100526190D01*
X174521904Y-100002380D02*
X174998095Y-100002380D01*
X175045714Y-100478571D01*
X174998095Y-100430952D01*
X174902857Y-100383333D01*
X174664761Y-100383333D01*
X174569523Y-100430952D01*
X174521904Y-100478571D01*
X174474285Y-100573809D01*
X174474285Y-100811904D01*
X174521904Y-100907142D01*
X174569523Y-100954761D01*
X174664761Y-101002380D01*
X174902857Y-101002380D01*
X174998095Y-100954761D01*
X175045714Y-100907142D01*
%TO.C,r4*%
X173267619Y-107352380D02*
X173267619Y-106685714D01*
X173267619Y-106876190D02*
X173220000Y-106780952D01*
X173172380Y-106733333D01*
X173077142Y-106685714D01*
X172981904Y-106685714D01*
X172220000Y-106685714D02*
X172220000Y-107352380D01*
X172458095Y-106304761D02*
X172696190Y-107019047D01*
X172077142Y-107019047D01*
%TO.C,C2*%
X199087142Y-97623333D02*
X199134761Y-97575714D01*
X199182380Y-97432857D01*
X199182380Y-97337619D01*
X199134761Y-97194761D01*
X199039523Y-97099523D01*
X198944285Y-97051904D01*
X198753809Y-97004285D01*
X198610952Y-97004285D01*
X198420476Y-97051904D01*
X198325238Y-97099523D01*
X198230000Y-97194761D01*
X198182380Y-97337619D01*
X198182380Y-97432857D01*
X198230000Y-97575714D01*
X198277619Y-97623333D01*
X198277619Y-98004285D02*
X198230000Y-98051904D01*
X198182380Y-98147142D01*
X198182380Y-98385238D01*
X198230000Y-98480476D01*
X198277619Y-98528095D01*
X198372857Y-98575714D01*
X198468095Y-98575714D01*
X198610952Y-98528095D01*
X199182380Y-97956666D01*
X199182380Y-98575714D01*
%TD*%
M02*
