M48
; DRILL file {KiCad (5.1.10)-1} date 11/07/21 17:17:03
; FORMAT={-:-/ absolute / inch / decimal}
; #@! TF.CreationDate,2021-11-07T17:17:03-05:00
; #@! TF.GenerationSoftware,Kicad,Pcbnew,(5.1.10)-1
; #@! TF.FileFunction,Plated,1,32,PTH
FMAT,2
INCH
T1C0.0307
T2C0.0394
%
G90
G05
T1
X7.35Y-4.0937
X7.35Y-4.4063
X7.45Y-4.0937
X7.45Y-4.4063
X7.55Y-4.0937
X7.55Y-4.4063
X7.65Y-4.0937
X7.65Y-4.4063
X7.65Y-5.4437
X7.65Y-5.7563
X7.75Y-5.4437
X7.75Y-5.7563
X7.85Y-5.4437
X7.85Y-5.7563
X7.95Y-5.4437
X7.95Y-5.7563
T2
X5.8719Y-4.0719
X5.8719Y-4.1719
X5.8719Y-4.2719
X5.8719Y-4.3719
X5.8719Y-4.4719
X5.8719Y-4.5719
X5.8719Y-4.6719
X5.8719Y-4.7719
X6.15Y-3.7
X6.65Y-5.4
X8.9Y-4.5
T0
M30
