%TF.GenerationSoftware,KiCad,Pcbnew,(5.1.10)-1*%
%TF.CreationDate,2021-11-07T17:17:01-05:00*%
%TF.ProjectId,kicad,6b696361-642e-46b6-9963-61645f706362,rev?*%
%TF.SameCoordinates,Original*%
%TF.FileFunction,Legend,Top*%
%TF.FilePolarity,Positive*%
%FSLAX46Y46*%
G04 Gerber Fmt 4.6, Leading zero omitted, Abs format (unit mm)*
G04 Created by KiCad (PCBNEW (5.1.10)-1) date 2021-11-07 17:17:01*
%MOMM*%
%LPD*%
G01*
G04 APERTURE LIST*
%ADD10C,0.127000*%
%ADD11C,0.200000*%
%ADD12C,0.120000*%
%ADD13C,0.100000*%
%ADD14C,0.150000*%
G04 APERTURE END LIST*
D10*
%TO.C,U3*%
X193325000Y-139065000D02*
X193325000Y-145415000D01*
X202915000Y-139065000D02*
X202915000Y-145415000D01*
D11*
X202030000Y-137205000D02*
G75*
G03*
X202030000Y-137205000I-100000J0D01*
G01*
D12*
%TO.C,gnd1*%
X170240000Y-138600000D02*
X167580000Y-138600000D01*
X167580000Y-138600000D02*
X167580000Y-141260000D01*
X167580000Y-141260000D02*
X170240000Y-141260000D01*
X170240000Y-141260000D02*
X170240000Y-138600000D01*
X169290000Y-141260000D02*
X169290000Y-147260000D01*
X169290000Y-147260000D02*
X168530000Y-147260000D01*
X168530000Y-147260000D02*
X168530000Y-141260000D01*
X169230000Y-141260000D02*
X169230000Y-147260000D01*
X169110000Y-141260000D02*
X169110000Y-147260000D01*
X168990000Y-141260000D02*
X168990000Y-147260000D01*
X168870000Y-141260000D02*
X168870000Y-147260000D01*
X168750000Y-141260000D02*
X168750000Y-147260000D01*
X168630000Y-141260000D02*
X168630000Y-147260000D01*
X169290000Y-138270000D02*
X169290000Y-138600000D01*
X168530000Y-138270000D02*
X168530000Y-138600000D01*
X168910000Y-135890000D02*
X170180000Y-135890000D01*
X170180000Y-135890000D02*
X170180000Y-137160000D01*
%TO.C,Vin2*%
X224730000Y-112860000D02*
X227390000Y-112860000D01*
X227390000Y-112860000D02*
X227390000Y-110200000D01*
X227390000Y-110200000D02*
X224730000Y-110200000D01*
X224730000Y-110200000D02*
X224730000Y-112860000D01*
X225680000Y-110200000D02*
X225680000Y-104200000D01*
X225680000Y-104200000D02*
X226440000Y-104200000D01*
X226440000Y-104200000D02*
X226440000Y-110200000D01*
X225740000Y-110200000D02*
X225740000Y-104200000D01*
X225860000Y-110200000D02*
X225860000Y-104200000D01*
X225980000Y-110200000D02*
X225980000Y-104200000D01*
X226100000Y-110200000D02*
X226100000Y-104200000D01*
X226220000Y-110200000D02*
X226220000Y-104200000D01*
X226340000Y-110200000D02*
X226340000Y-104200000D01*
X225680000Y-113190000D02*
X225680000Y-112860000D01*
X226440000Y-113190000D02*
X226440000Y-112860000D01*
X226060000Y-115570000D02*
X224790000Y-115570000D01*
X224790000Y-115570000D02*
X224790000Y-114300000D01*
%TO.C,Vin1*%
X154880000Y-92540000D02*
X157540000Y-92540000D01*
X157540000Y-92540000D02*
X157540000Y-89880000D01*
X157540000Y-89880000D02*
X154880000Y-89880000D01*
X154880000Y-89880000D02*
X154880000Y-92540000D01*
X155830000Y-89880000D02*
X155830000Y-83880000D01*
X155830000Y-83880000D02*
X156590000Y-83880000D01*
X156590000Y-83880000D02*
X156590000Y-89880000D01*
X155890000Y-89880000D02*
X155890000Y-83880000D01*
X156010000Y-89880000D02*
X156010000Y-83880000D01*
X156130000Y-89880000D02*
X156130000Y-83880000D01*
X156250000Y-89880000D02*
X156250000Y-83880000D01*
X156370000Y-89880000D02*
X156370000Y-83880000D01*
X156490000Y-89880000D02*
X156490000Y-83880000D01*
X155830000Y-92870000D02*
X155830000Y-92540000D01*
X156590000Y-92870000D02*
X156590000Y-92540000D01*
X156210000Y-95250000D02*
X154940000Y-95250000D01*
X154940000Y-95250000D02*
X154940000Y-93980000D01*
D11*
%TO.C,U2*%
X186790000Y-112985000D02*
G75*
G03*
X186790000Y-112985000I-100000J0D01*
G01*
D10*
X185705000Y-111125000D02*
X185705000Y-104775000D01*
X195295000Y-111125000D02*
X195295000Y-104775000D01*
D12*
%TO.C,U1*%
X149145001Y-102095001D02*
X150475001Y-102095001D01*
X150475001Y-102095001D02*
X150475001Y-103425001D01*
X150475001Y-104695001D02*
X150475001Y-122535001D01*
X147815001Y-122535001D02*
X150475001Y-122535001D01*
X147815001Y-104695001D02*
X147815001Y-122535001D01*
X147815001Y-104695001D02*
X150475001Y-104695001D01*
D13*
%TO.C,D2*%
X225250000Y-132080000D02*
G75*
G03*
X225250000Y-132080000I-50000J0D01*
G01*
%TO.C,D1*%
X226970000Y-120650000D02*
G75*
G03*
X226970000Y-120650000I-50000J0D01*
G01*
D12*
%TO.C,C2*%
X202390000Y-119660000D02*
X201190000Y-119660000D01*
X197870000Y-119660000D02*
X199070000Y-119660000D01*
X197870000Y-123115563D02*
X197870000Y-119660000D01*
X202390000Y-123115563D02*
X202390000Y-119660000D01*
X201325563Y-124180000D02*
X201190000Y-124180000D01*
X198934437Y-124180000D02*
X199070000Y-124180000D01*
X198934437Y-124180000D02*
X197870000Y-123115563D01*
X201325563Y-124180000D02*
X202390000Y-123115563D01*
X198570000Y-124920000D02*
X198570000Y-124420000D01*
X198320000Y-124670000D02*
X198820000Y-124670000D01*
%TO.C,C1*%
X183355001Y-105285001D02*
X183355001Y-104585001D01*
X183355001Y-101765001D02*
X183355001Y-102465001D01*
X180724438Y-101765001D02*
X183355001Y-101765001D01*
X180724438Y-105285001D02*
X183355001Y-105285001D01*
X180024438Y-102465001D02*
X180724438Y-101765001D01*
X180024438Y-104585001D02*
X180724438Y-105285001D01*
X179220001Y-102090001D02*
X179595001Y-102090001D01*
X179407501Y-101902501D02*
X179407501Y-102277501D01*
%TO.C,U3*%
D14*
X203179380Y-142436904D02*
X203988904Y-142436904D01*
X204084142Y-142389285D01*
X204131761Y-142341666D01*
X204179380Y-142246428D01*
X204179380Y-142055952D01*
X204131761Y-141960714D01*
X204084142Y-141913095D01*
X203988904Y-141865476D01*
X203179380Y-141865476D01*
X203179380Y-141484523D02*
X203179380Y-140865476D01*
X203560333Y-141198809D01*
X203560333Y-141055952D01*
X203607952Y-140960714D01*
X203655571Y-140913095D01*
X203750809Y-140865476D01*
X203988904Y-140865476D01*
X204084142Y-140913095D01*
X204131761Y-140960714D01*
X204179380Y-141055952D01*
X204179380Y-141341666D01*
X204131761Y-141436904D01*
X204084142Y-141484523D01*
%TO.C,gnd1*%
X170965714Y-142711666D02*
X171775238Y-142711666D01*
X171870476Y-142759285D01*
X171918095Y-142806904D01*
X171965714Y-142902142D01*
X171965714Y-143045000D01*
X171918095Y-143140238D01*
X171584761Y-142711666D02*
X171632380Y-142806904D01*
X171632380Y-142997380D01*
X171584761Y-143092619D01*
X171537142Y-143140238D01*
X171441904Y-143187857D01*
X171156190Y-143187857D01*
X171060952Y-143140238D01*
X171013333Y-143092619D01*
X170965714Y-142997380D01*
X170965714Y-142806904D01*
X171013333Y-142711666D01*
X170965714Y-142235476D02*
X171632380Y-142235476D01*
X171060952Y-142235476D02*
X171013333Y-142187857D01*
X170965714Y-142092619D01*
X170965714Y-141949761D01*
X171013333Y-141854523D01*
X171108571Y-141806904D01*
X171632380Y-141806904D01*
X171632380Y-140902142D02*
X170632380Y-140902142D01*
X171584761Y-140902142D02*
X171632380Y-140997380D01*
X171632380Y-141187857D01*
X171584761Y-141283095D01*
X171537142Y-141330714D01*
X171441904Y-141378333D01*
X171156190Y-141378333D01*
X171060952Y-141330714D01*
X171013333Y-141283095D01*
X170965714Y-141187857D01*
X170965714Y-140997380D01*
X171013333Y-140902142D01*
X171632380Y-139902142D02*
X171632380Y-140473571D01*
X171632380Y-140187857D02*
X170632380Y-140187857D01*
X170775238Y-140283095D01*
X170870476Y-140378333D01*
X170918095Y-140473571D01*
%TO.C,Vin2*%
X223242380Y-111415000D02*
X224242380Y-111081666D01*
X223242380Y-110748333D01*
X224242380Y-110415000D02*
X223575714Y-110415000D01*
X223242380Y-110415000D02*
X223290000Y-110462619D01*
X223337619Y-110415000D01*
X223290000Y-110367380D01*
X223242380Y-110415000D01*
X223337619Y-110415000D01*
X223575714Y-109938809D02*
X224242380Y-109938809D01*
X223670952Y-109938809D02*
X223623333Y-109891190D01*
X223575714Y-109795952D01*
X223575714Y-109653095D01*
X223623333Y-109557857D01*
X223718571Y-109510238D01*
X224242380Y-109510238D01*
X223337619Y-109081666D02*
X223290000Y-109034047D01*
X223242380Y-108938809D01*
X223242380Y-108700714D01*
X223290000Y-108605476D01*
X223337619Y-108557857D01*
X223432857Y-108510238D01*
X223528095Y-108510238D01*
X223670952Y-108557857D01*
X224242380Y-109129285D01*
X224242380Y-108510238D01*
%TO.C,Vin1*%
X153392380Y-91095000D02*
X154392380Y-90761666D01*
X153392380Y-90428333D01*
X154392380Y-90095000D02*
X153725714Y-90095000D01*
X153392380Y-90095000D02*
X153440000Y-90142619D01*
X153487619Y-90095000D01*
X153440000Y-90047380D01*
X153392380Y-90095000D01*
X153487619Y-90095000D01*
X153725714Y-89618809D02*
X154392380Y-89618809D01*
X153820952Y-89618809D02*
X153773333Y-89571190D01*
X153725714Y-89475952D01*
X153725714Y-89333095D01*
X153773333Y-89237857D01*
X153868571Y-89190238D01*
X154392380Y-89190238D01*
X154392380Y-88190238D02*
X154392380Y-88761666D01*
X154392380Y-88475952D02*
X153392380Y-88475952D01*
X153535238Y-88571190D01*
X153630476Y-88666428D01*
X153678095Y-88761666D01*
%TO.C,U2*%
X184345380Y-109276904D02*
X185154904Y-109276904D01*
X185250142Y-109229285D01*
X185297761Y-109181666D01*
X185345380Y-109086428D01*
X185345380Y-108895952D01*
X185297761Y-108800714D01*
X185250142Y-108753095D01*
X185154904Y-108705476D01*
X184345380Y-108705476D01*
X184440619Y-108276904D02*
X184393000Y-108229285D01*
X184345380Y-108134047D01*
X184345380Y-107895952D01*
X184393000Y-107800714D01*
X184440619Y-107753095D01*
X184535857Y-107705476D01*
X184631095Y-107705476D01*
X184773952Y-107753095D01*
X185345380Y-108324523D01*
X185345380Y-107705476D01*
%TO.C,U1*%
X148383096Y-100107381D02*
X148383096Y-100916905D01*
X148430715Y-101012143D01*
X148478334Y-101059762D01*
X148573572Y-101107381D01*
X148764048Y-101107381D01*
X148859286Y-101059762D01*
X148906905Y-101012143D01*
X148954524Y-100916905D01*
X148954524Y-100107381D01*
X149954524Y-101107381D02*
X149383096Y-101107381D01*
X149668810Y-101107381D02*
X149668810Y-100107381D01*
X149573572Y-100250239D01*
X149478334Y-100345477D01*
X149383096Y-100393096D01*
%TO.C,R9*%
X219543333Y-139932380D02*
X219210000Y-139456190D01*
X218971904Y-139932380D02*
X218971904Y-138932380D01*
X219352857Y-138932380D01*
X219448095Y-138980000D01*
X219495714Y-139027619D01*
X219543333Y-139122857D01*
X219543333Y-139265714D01*
X219495714Y-139360952D01*
X219448095Y-139408571D01*
X219352857Y-139456190D01*
X218971904Y-139456190D01*
X220019523Y-139932380D02*
X220210000Y-139932380D01*
X220305238Y-139884761D01*
X220352857Y-139837142D01*
X220448095Y-139694285D01*
X220495714Y-139503809D01*
X220495714Y-139122857D01*
X220448095Y-139027619D01*
X220400476Y-138980000D01*
X220305238Y-138932380D01*
X220114761Y-138932380D01*
X220019523Y-138980000D01*
X219971904Y-139027619D01*
X219924285Y-139122857D01*
X219924285Y-139360952D01*
X219971904Y-139456190D01*
X220019523Y-139503809D01*
X220114761Y-139551428D01*
X220305238Y-139551428D01*
X220400476Y-139503809D01*
X220448095Y-139456190D01*
X220495714Y-139360952D01*
%TO.C,R6*%
X186523333Y-125132380D02*
X186190000Y-124656190D01*
X185951904Y-125132380D02*
X185951904Y-124132380D01*
X186332857Y-124132380D01*
X186428095Y-124180000D01*
X186475714Y-124227619D01*
X186523333Y-124322857D01*
X186523333Y-124465714D01*
X186475714Y-124560952D01*
X186428095Y-124608571D01*
X186332857Y-124656190D01*
X185951904Y-124656190D01*
X187380476Y-124132380D02*
X187190000Y-124132380D01*
X187094761Y-124180000D01*
X187047142Y-124227619D01*
X186951904Y-124370476D01*
X186904285Y-124560952D01*
X186904285Y-124941904D01*
X186951904Y-125037142D01*
X186999523Y-125084761D01*
X187094761Y-125132380D01*
X187285238Y-125132380D01*
X187380476Y-125084761D01*
X187428095Y-125037142D01*
X187475714Y-124941904D01*
X187475714Y-124703809D01*
X187428095Y-124608571D01*
X187380476Y-124560952D01*
X187285238Y-124513333D01*
X187094761Y-124513333D01*
X186999523Y-124560952D01*
X186951904Y-124608571D01*
X186904285Y-124703809D01*
%TO.C,R5*%
X188192380Y-114786666D02*
X187716190Y-115120000D01*
X188192380Y-115358095D02*
X187192380Y-115358095D01*
X187192380Y-114977142D01*
X187240000Y-114881904D01*
X187287619Y-114834285D01*
X187382857Y-114786666D01*
X187525714Y-114786666D01*
X187620952Y-114834285D01*
X187668571Y-114881904D01*
X187716190Y-114977142D01*
X187716190Y-115358095D01*
X187192380Y-113881904D02*
X187192380Y-114358095D01*
X187668571Y-114405714D01*
X187620952Y-114358095D01*
X187573333Y-114262857D01*
X187573333Y-114024761D01*
X187620952Y-113929523D01*
X187668571Y-113881904D01*
X187763809Y-113834285D01*
X188001904Y-113834285D01*
X188097142Y-113881904D01*
X188144761Y-113929523D01*
X188192380Y-114024761D01*
X188192380Y-114262857D01*
X188144761Y-114358095D01*
X188097142Y-114405714D01*
%TO.C,r4*%
X190732380Y-117387619D02*
X190065714Y-117387619D01*
X190256190Y-117387619D02*
X190160952Y-117340000D01*
X190113333Y-117292380D01*
X190065714Y-117197142D01*
X190065714Y-117101904D01*
X190065714Y-116340000D02*
X190732380Y-116340000D01*
X189684761Y-116578095D02*
X190399047Y-116816190D01*
X190399047Y-116197142D01*
%TO.C,R3*%
X181443333Y-111162380D02*
X181110000Y-110686190D01*
X180871904Y-111162380D02*
X180871904Y-110162380D01*
X181252857Y-110162380D01*
X181348095Y-110210000D01*
X181395714Y-110257619D01*
X181443333Y-110352857D01*
X181443333Y-110495714D01*
X181395714Y-110590952D01*
X181348095Y-110638571D01*
X181252857Y-110686190D01*
X180871904Y-110686190D01*
X181776666Y-110162380D02*
X182395714Y-110162380D01*
X182062380Y-110543333D01*
X182205238Y-110543333D01*
X182300476Y-110590952D01*
X182348095Y-110638571D01*
X182395714Y-110733809D01*
X182395714Y-110971904D01*
X182348095Y-111067142D01*
X182300476Y-111114761D01*
X182205238Y-111162380D01*
X181919523Y-111162380D01*
X181824285Y-111114761D01*
X181776666Y-111067142D01*
%TO.C,R2*%
X162393333Y-99732380D02*
X162060000Y-99256190D01*
X161821904Y-99732380D02*
X161821904Y-98732380D01*
X162202857Y-98732380D01*
X162298095Y-98780000D01*
X162345714Y-98827619D01*
X162393333Y-98922857D01*
X162393333Y-99065714D01*
X162345714Y-99160952D01*
X162298095Y-99208571D01*
X162202857Y-99256190D01*
X161821904Y-99256190D01*
X162774285Y-98827619D02*
X162821904Y-98780000D01*
X162917142Y-98732380D01*
X163155238Y-98732380D01*
X163250476Y-98780000D01*
X163298095Y-98827619D01*
X163345714Y-98922857D01*
X163345714Y-99018095D01*
X163298095Y-99160952D01*
X162726666Y-99732380D01*
X163345714Y-99732380D01*
%TO.C,R1*%
X154773333Y-99732380D02*
X154440000Y-99256190D01*
X154201904Y-99732380D02*
X154201904Y-98732380D01*
X154582857Y-98732380D01*
X154678095Y-98780000D01*
X154725714Y-98827619D01*
X154773333Y-98922857D01*
X154773333Y-99065714D01*
X154725714Y-99160952D01*
X154678095Y-99208571D01*
X154582857Y-99256190D01*
X154201904Y-99256190D01*
X155725714Y-99732380D02*
X155154285Y-99732380D01*
X155440000Y-99732380D02*
X155440000Y-98732380D01*
X155344761Y-98875238D01*
X155249523Y-98970476D01*
X155154285Y-99018095D01*
%TO.C,D2*%
X225321904Y-131482380D02*
X225321904Y-130482380D01*
X225560000Y-130482380D01*
X225702857Y-130530000D01*
X225798095Y-130625238D01*
X225845714Y-130720476D01*
X225893333Y-130910952D01*
X225893333Y-131053809D01*
X225845714Y-131244285D01*
X225798095Y-131339523D01*
X225702857Y-131434761D01*
X225560000Y-131482380D01*
X225321904Y-131482380D01*
X226274285Y-130577619D02*
X226321904Y-130530000D01*
X226417142Y-130482380D01*
X226655238Y-130482380D01*
X226750476Y-130530000D01*
X226798095Y-130577619D01*
X226845714Y-130672857D01*
X226845714Y-130768095D01*
X226798095Y-130910952D01*
X226226666Y-131482380D01*
X226845714Y-131482380D01*
%TO.C,D1*%
X225321904Y-122152380D02*
X225321904Y-121152380D01*
X225560000Y-121152380D01*
X225702857Y-121200000D01*
X225798095Y-121295238D01*
X225845714Y-121390476D01*
X225893333Y-121580952D01*
X225893333Y-121723809D01*
X225845714Y-121914285D01*
X225798095Y-122009523D01*
X225702857Y-122104761D01*
X225560000Y-122152380D01*
X225321904Y-122152380D01*
X226845714Y-122152380D02*
X226274285Y-122152380D01*
X226560000Y-122152380D02*
X226560000Y-121152380D01*
X226464761Y-121295238D01*
X226369523Y-121390476D01*
X226274285Y-121438095D01*
%TO.C,C2*%
X197287142Y-122086666D02*
X197334761Y-122134285D01*
X197382380Y-122277142D01*
X197382380Y-122372380D01*
X197334761Y-122515238D01*
X197239523Y-122610476D01*
X197144285Y-122658095D01*
X196953809Y-122705714D01*
X196810952Y-122705714D01*
X196620476Y-122658095D01*
X196525238Y-122610476D01*
X196430000Y-122515238D01*
X196382380Y-122372380D01*
X196382380Y-122277142D01*
X196430000Y-122134285D01*
X196477619Y-122086666D01*
X196477619Y-121705714D02*
X196430000Y-121658095D01*
X196382380Y-121562857D01*
X196382380Y-121324761D01*
X196430000Y-121229523D01*
X196477619Y-121181904D01*
X196572857Y-121134285D01*
X196668095Y-121134285D01*
X196810952Y-121181904D01*
X197382380Y-121753333D01*
X197382380Y-121134285D01*
%TO.C,C1*%
X181428334Y-101182143D02*
X181380715Y-101229762D01*
X181237858Y-101277381D01*
X181142620Y-101277381D01*
X180999762Y-101229762D01*
X180904524Y-101134524D01*
X180856905Y-101039286D01*
X180809286Y-100848810D01*
X180809286Y-100705953D01*
X180856905Y-100515477D01*
X180904524Y-100420239D01*
X180999762Y-100325001D01*
X181142620Y-100277381D01*
X181237858Y-100277381D01*
X181380715Y-100325001D01*
X181428334Y-100372620D01*
X182380715Y-101277381D02*
X181809286Y-101277381D01*
X182095001Y-101277381D02*
X182095001Y-100277381D01*
X181999762Y-100420239D01*
X181904524Y-100515477D01*
X181809286Y-100563096D01*
%TD*%
M02*
