%TF.GenerationSoftware,KiCad,Pcbnew,(5.1.10)-1*%
%TF.CreationDate,2021-11-07T21:57:16-05:00*%
%TF.ProjectId,kicad,6b696361-642e-46b6-9963-61645f706362,rev?*%
%TF.SameCoordinates,Original*%
%TF.FileFunction,Copper,L32,Bot*%
%TF.FilePolarity,Positive*%
%FSLAX46Y46*%
G04 Gerber Fmt 4.6, Leading zero omitted, Abs format (unit mm)*
G04 Created by KiCad (PCBNEW (5.1.10)-1) date 2021-11-07 21:57:16*
%MOMM*%
%LPD*%
G01*
G04 APERTURE LIST*
%TA.AperFunction,ComponentPad*%
%ADD10O,1.700000X1.700000*%
%TD*%
%TA.AperFunction,ComponentPad*%
%ADD11R,1.700000X1.700000*%
%TD*%
%TA.AperFunction,ComponentPad*%
%ADD12C,1.130000*%
%TD*%
%TA.AperFunction,ComponentPad*%
%ADD13R,1.130000X1.130000*%
%TD*%
%TA.AperFunction,Conductor*%
%ADD14C,0.250000*%
%TD*%
G04 APERTURE END LIST*
D10*
%TO.P,U1,4*%
%TO.N,Net-(C1-Pad2)*%
X148590000Y-111760000D03*
%TO.P,U1,3*%
%TO.N,Net-(1k2-Pad2)*%
X148590000Y-109220000D03*
%TO.P,U1,2*%
X148590000Y-106680000D03*
D11*
%TO.P,U1,1*%
%TO.N,Net-(R1-Pad2)*%
X148590000Y-104140000D03*
%TD*%
%TO.P,Vin2,1*%
%TO.N,Net-(D1-Pad1)*%
X232410000Y-90170000D03*
%TD*%
%TO.P,OUT1,1*%
%TO.N,Net-(D1-Pad2)*%
X243840000Y-106680000D03*
%TD*%
%TO.P,R6,2*%
%TO.N,Net-(C2-Pad1)*%
%TA.AperFunction,SMDPad,CuDef*%
G36*
G01*
X185190000Y-94080000D02*
X185190000Y-93880000D01*
G75*
G02*
X185290000Y-93780000I100000J0D01*
G01*
X185550000Y-93780000D01*
G75*
G02*
X185650000Y-93880000I0J-100000D01*
G01*
X185650000Y-94080000D01*
G75*
G02*
X185550000Y-94180000I-100000J0D01*
G01*
X185290000Y-94180000D01*
G75*
G02*
X185190000Y-94080000I0J100000D01*
G01*
G37*
%TD.AperFunction*%
%TO.P,R6,1*%
%TO.N,Net-(R5-Pad1)*%
%TA.AperFunction,SMDPad,CuDef*%
G36*
G01*
X184550000Y-94080000D02*
X184550000Y-93880000D01*
G75*
G02*
X184650000Y-93780000I100000J0D01*
G01*
X184910000Y-93780000D01*
G75*
G02*
X185010000Y-93880000I0J-100000D01*
G01*
X185010000Y-94080000D01*
G75*
G02*
X184910000Y-94180000I-100000J0D01*
G01*
X184650000Y-94180000D01*
G75*
G02*
X184550000Y-94080000I0J100000D01*
G01*
G37*
%TD.AperFunction*%
%TD*%
%TO.P,R5,2*%
%TO.N,Net-(R5-Pad2)*%
%TA.AperFunction,SMDPad,CuDef*%
G36*
G01*
X175170000Y-101500000D02*
X175170000Y-101700000D01*
G75*
G02*
X175070000Y-101800000I-100000J0D01*
G01*
X174810000Y-101800000D01*
G75*
G02*
X174710000Y-101700000I0J100000D01*
G01*
X174710000Y-101500000D01*
G75*
G02*
X174810000Y-101400000I100000J0D01*
G01*
X175070000Y-101400000D01*
G75*
G02*
X175170000Y-101500000I0J-100000D01*
G01*
G37*
%TD.AperFunction*%
%TO.P,R5,1*%
%TO.N,Net-(R5-Pad1)*%
%TA.AperFunction,SMDPad,CuDef*%
G36*
G01*
X175810000Y-101500000D02*
X175810000Y-101700000D01*
G75*
G02*
X175710000Y-101800000I-100000J0D01*
G01*
X175450000Y-101800000D01*
G75*
G02*
X175350000Y-101700000I0J100000D01*
G01*
X175350000Y-101500000D01*
G75*
G02*
X175450000Y-101400000I100000J0D01*
G01*
X175710000Y-101400000D01*
G75*
G02*
X175810000Y-101500000I0J-100000D01*
G01*
G37*
%TD.AperFunction*%
%TD*%
%TO.P,r4,2*%
%TO.N,Net-(1k2-Pad2)*%
%TA.AperFunction,SMDPad,CuDef*%
G36*
G01*
X172630000Y-107850000D02*
X172630000Y-108050000D01*
G75*
G02*
X172530000Y-108150000I-100000J0D01*
G01*
X172270000Y-108150000D01*
G75*
G02*
X172170000Y-108050000I0J100000D01*
G01*
X172170000Y-107850000D01*
G75*
G02*
X172270000Y-107750000I100000J0D01*
G01*
X172530000Y-107750000D01*
G75*
G02*
X172630000Y-107850000I0J-100000D01*
G01*
G37*
%TD.AperFunction*%
%TO.P,r4,1*%
%TO.N,Net-(R5-Pad2)*%
%TA.AperFunction,SMDPad,CuDef*%
G36*
G01*
X173270000Y-107850000D02*
X173270000Y-108050000D01*
G75*
G02*
X173170000Y-108150000I-100000J0D01*
G01*
X172910000Y-108150000D01*
G75*
G02*
X172810000Y-108050000I0J100000D01*
G01*
X172810000Y-107850000D01*
G75*
G02*
X172910000Y-107750000I100000J0D01*
G01*
X173170000Y-107750000D01*
G75*
G02*
X173270000Y-107850000I0J-100000D01*
G01*
G37*
%TD.AperFunction*%
%TD*%
%TO.P,C2,2*%
%TO.N,Net-(1k2-Pad2)*%
%TA.AperFunction,SMDPad,CuDef*%
G36*
G01*
X201380000Y-98290000D02*
X202480000Y-98290000D01*
G75*
G02*
X202730000Y-98540000I0J-250000D01*
G01*
X202730000Y-100640000D01*
G75*
G02*
X202480000Y-100890000I-250000J0D01*
G01*
X201380000Y-100890000D01*
G75*
G02*
X201130000Y-100640000I0J250000D01*
G01*
X201130000Y-98540000D01*
G75*
G02*
X201380000Y-98290000I250000J0D01*
G01*
G37*
%TD.AperFunction*%
%TO.P,C2,1*%
%TO.N,Net-(C2-Pad1)*%
%TA.AperFunction,SMDPad,CuDef*%
G36*
G01*
X201380000Y-94690000D02*
X202480000Y-94690000D01*
G75*
G02*
X202730000Y-94940000I0J-250000D01*
G01*
X202730000Y-97040000D01*
G75*
G02*
X202480000Y-97290000I-250000J0D01*
G01*
X201380000Y-97290000D01*
G75*
G02*
X201130000Y-97040000I0J250000D01*
G01*
X201130000Y-94940000D01*
G75*
G02*
X201380000Y-94690000I250000J0D01*
G01*
G37*
%TD.AperFunction*%
%TD*%
D12*
%TO.P,U2,8*%
%TO.N,N/C*%
X189390000Y-104140000D03*
%TO.P,U2,7*%
%TO.N,Net-(R8-Pad1)*%
X189390000Y-106680000D03*
%TO.P,U2,6*%
%TO.N,Net-(1k2-Pad1)*%
X189390000Y-109220000D03*
%TO.P,U2,5*%
%TO.N,Net-(C2-Pad1)*%
X189390000Y-111760000D03*
%TO.P,U2,4*%
%TO.N,N/C*%
X181450000Y-111760000D03*
%TO.P,U2,3*%
%TO.N,Net-(C1-Pad1)*%
X181450000Y-109220000D03*
%TO.P,U2,2*%
%TO.N,Net-(R5-Pad2)*%
X181450000Y-106680000D03*
D13*
%TO.P,U2,1*%
%TO.N,Net-(R5-Pad1)*%
X181450000Y-104140000D03*
%TD*%
D11*
%TO.P,gnd1,1*%
%TO.N,Net-(1k2-Pad2)*%
X168910000Y-137160000D03*
%TD*%
%TO.P,Vin1,1*%
%TO.N,Net-(R1-Pad1)*%
X156210000Y-93980000D03*
%TD*%
D14*
%TO.N,Net-(C2-Pad1)*%
X185611058Y-93980000D02*
X185420000Y-93980000D01*
X185420000Y-93780000D02*
X185420000Y-93980000D01*
X185950000Y-94510000D02*
X185420000Y-93980000D01*
X189502798Y-108110000D02*
X185420000Y-104027202D01*
X189597202Y-108110000D02*
X189502798Y-108110000D01*
X190280001Y-108792799D02*
X189597202Y-108110000D01*
X190280001Y-110869999D02*
X190280001Y-108792799D01*
X189390000Y-111760000D02*
X190280001Y-110869999D01*
X185420000Y-104027202D02*
X185420000Y-93980000D01*
X187220000Y-95780000D02*
X185420000Y-93980000D01*
X201930000Y-95780000D02*
X187220000Y-95780000D01*
%TO.N,Net-(R5-Pad2)*%
X173040000Y-107950000D02*
X173040000Y-103584990D01*
X174940000Y-101684990D02*
X174940000Y-101600000D01*
X173040000Y-103584990D02*
X174940000Y-101684990D01*
X179820000Y-106680000D02*
X181450000Y-106680000D01*
X174940000Y-101800000D02*
X179820000Y-106680000D01*
X174940000Y-101600000D02*
X174940000Y-101800000D01*
%TO.N,Net-(R5-Pad1)*%
X175580000Y-101600000D02*
X178910000Y-101600000D01*
X184445000Y-93980000D02*
X184780000Y-93980000D01*
X178990000Y-99770000D02*
X184780000Y-93980000D01*
X178990000Y-101680000D02*
X178990000Y-99770000D01*
X178910000Y-101600000D02*
X178990000Y-101680000D01*
X178990000Y-101680000D02*
X181450000Y-104140000D01*
%TO.N,Net-(1k2-Pad2)*%
X168910000Y-137160000D02*
X168910000Y-128270000D01*
X172400000Y-133670000D02*
X168910000Y-137160000D01*
X172400000Y-107950000D02*
X172400000Y-133670000D01*
X201930000Y-99590000D02*
X201930000Y-104140000D01*
X201930000Y-104140000D02*
X172400000Y-133670000D01*
X148590000Y-106680000D02*
X148590000Y-109220000D01*
X148590000Y-110020998D02*
X148590000Y-109220000D01*
X168910000Y-130340998D02*
X148590000Y-110020998D01*
X168910000Y-137160000D02*
X168910000Y-130340998D01*
%TD*%
M02*
