%TF.GenerationSoftware,KiCad,Pcbnew,(5.1.10)-1*%
%TF.CreationDate,2021-11-07T21:57:16-05:00*%
%TF.ProjectId,kicad,6b696361-642e-46b6-9963-61645f706362,rev?*%
%TF.SameCoordinates,Original*%
%TF.FileFunction,Soldermask,Bot*%
%TF.FilePolarity,Negative*%
%FSLAX46Y46*%
G04 Gerber Fmt 4.6, Leading zero omitted, Abs format (unit mm)*
G04 Created by KiCad (PCBNEW (5.1.10)-1) date 2021-11-07 21:57:16*
%MOMM*%
%LPD*%
G01*
G04 APERTURE LIST*
%ADD10O,1.700000X1.700000*%
%ADD11R,1.700000X1.700000*%
%ADD12C,1.130000*%
%ADD13R,1.130000X1.130000*%
G04 APERTURE END LIST*
D10*
%TO.C,U1*%
X148590000Y-111760000D03*
X148590000Y-109220000D03*
X148590000Y-106680000D03*
D11*
X148590000Y-104140000D03*
%TD*%
%TO.C,Vin2*%
X232410000Y-90170000D03*
%TD*%
%TO.C,OUT1*%
X243840000Y-106680000D03*
%TD*%
%TO.C,R6*%
G36*
G01*
X185190000Y-94080000D02*
X185190000Y-93880000D01*
G75*
G02*
X185290000Y-93780000I100000J0D01*
G01*
X185550000Y-93780000D01*
G75*
G02*
X185650000Y-93880000I0J-100000D01*
G01*
X185650000Y-94080000D01*
G75*
G02*
X185550000Y-94180000I-100000J0D01*
G01*
X185290000Y-94180000D01*
G75*
G02*
X185190000Y-94080000I0J100000D01*
G01*
G37*
G36*
G01*
X184550000Y-94080000D02*
X184550000Y-93880000D01*
G75*
G02*
X184650000Y-93780000I100000J0D01*
G01*
X184910000Y-93780000D01*
G75*
G02*
X185010000Y-93880000I0J-100000D01*
G01*
X185010000Y-94080000D01*
G75*
G02*
X184910000Y-94180000I-100000J0D01*
G01*
X184650000Y-94180000D01*
G75*
G02*
X184550000Y-94080000I0J100000D01*
G01*
G37*
%TD*%
%TO.C,R5*%
G36*
G01*
X175170000Y-101500000D02*
X175170000Y-101700000D01*
G75*
G02*
X175070000Y-101800000I-100000J0D01*
G01*
X174810000Y-101800000D01*
G75*
G02*
X174710000Y-101700000I0J100000D01*
G01*
X174710000Y-101500000D01*
G75*
G02*
X174810000Y-101400000I100000J0D01*
G01*
X175070000Y-101400000D01*
G75*
G02*
X175170000Y-101500000I0J-100000D01*
G01*
G37*
G36*
G01*
X175810000Y-101500000D02*
X175810000Y-101700000D01*
G75*
G02*
X175710000Y-101800000I-100000J0D01*
G01*
X175450000Y-101800000D01*
G75*
G02*
X175350000Y-101700000I0J100000D01*
G01*
X175350000Y-101500000D01*
G75*
G02*
X175450000Y-101400000I100000J0D01*
G01*
X175710000Y-101400000D01*
G75*
G02*
X175810000Y-101500000I0J-100000D01*
G01*
G37*
%TD*%
%TO.C,r4*%
G36*
G01*
X172630000Y-107850000D02*
X172630000Y-108050000D01*
G75*
G02*
X172530000Y-108150000I-100000J0D01*
G01*
X172270000Y-108150000D01*
G75*
G02*
X172170000Y-108050000I0J100000D01*
G01*
X172170000Y-107850000D01*
G75*
G02*
X172270000Y-107750000I100000J0D01*
G01*
X172530000Y-107750000D01*
G75*
G02*
X172630000Y-107850000I0J-100000D01*
G01*
G37*
G36*
G01*
X173270000Y-107850000D02*
X173270000Y-108050000D01*
G75*
G02*
X173170000Y-108150000I-100000J0D01*
G01*
X172910000Y-108150000D01*
G75*
G02*
X172810000Y-108050000I0J100000D01*
G01*
X172810000Y-107850000D01*
G75*
G02*
X172910000Y-107750000I100000J0D01*
G01*
X173170000Y-107750000D01*
G75*
G02*
X173270000Y-107850000I0J-100000D01*
G01*
G37*
%TD*%
%TO.C,C2*%
G36*
G01*
X201380000Y-98290000D02*
X202480000Y-98290000D01*
G75*
G02*
X202730000Y-98540000I0J-250000D01*
G01*
X202730000Y-100640000D01*
G75*
G02*
X202480000Y-100890000I-250000J0D01*
G01*
X201380000Y-100890000D01*
G75*
G02*
X201130000Y-100640000I0J250000D01*
G01*
X201130000Y-98540000D01*
G75*
G02*
X201380000Y-98290000I250000J0D01*
G01*
G37*
G36*
G01*
X201380000Y-94690000D02*
X202480000Y-94690000D01*
G75*
G02*
X202730000Y-94940000I0J-250000D01*
G01*
X202730000Y-97040000D01*
G75*
G02*
X202480000Y-97290000I-250000J0D01*
G01*
X201380000Y-97290000D01*
G75*
G02*
X201130000Y-97040000I0J250000D01*
G01*
X201130000Y-94940000D01*
G75*
G02*
X201380000Y-94690000I250000J0D01*
G01*
G37*
%TD*%
D12*
%TO.C,U2*%
X189390000Y-104140000D03*
X189390000Y-106680000D03*
X189390000Y-109220000D03*
X189390000Y-111760000D03*
X181450000Y-111760000D03*
X181450000Y-109220000D03*
X181450000Y-106680000D03*
D13*
X181450000Y-104140000D03*
%TD*%
D11*
%TO.C,gnd1*%
X168910000Y-137160000D03*
%TD*%
%TO.C,Vin1*%
X156210000Y-93980000D03*
%TD*%
M02*
