%TF.GenerationSoftware,KiCad,Pcbnew,(5.1.10)-1*%
%TF.CreationDate,2021-11-07T21:57:16-05:00*%
%TF.ProjectId,kicad,6b696361-642e-46b6-9963-61645f706362,rev?*%
%TF.SameCoordinates,Original*%
%TF.FileFunction,Legend,Top*%
%TF.FilePolarity,Positive*%
%FSLAX46Y46*%
G04 Gerber Fmt 4.6, Leading zero omitted, Abs format (unit mm)*
G04 Created by KiCad (PCBNEW (5.1.10)-1) date 2021-11-07 21:57:16*
%MOMM*%
%LPD*%
G01*
G04 APERTURE LIST*
%ADD10C,0.250000*%
%ADD11C,0.120000*%
%ADD12C,0.100000*%
%ADD13C,0.200000*%
%ADD14C,0.127000*%
%ADD15C,0.150000*%
G04 APERTURE END LIST*
D10*
X150439523Y-109005714D02*
X150439523Y-109815238D01*
X150391904Y-109910476D01*
X150344285Y-109958095D01*
X150249047Y-110005714D01*
X150106190Y-110005714D01*
X150010952Y-109958095D01*
X150439523Y-109624761D02*
X150344285Y-109672380D01*
X150153809Y-109672380D01*
X150058571Y-109624761D01*
X150010952Y-109577142D01*
X149963333Y-109481904D01*
X149963333Y-109196190D01*
X150010952Y-109100952D01*
X150058571Y-109053333D01*
X150153809Y-109005714D01*
X150344285Y-109005714D01*
X150439523Y-109053333D01*
X150915714Y-109005714D02*
X150915714Y-109672380D01*
X150915714Y-109100952D02*
X150963333Y-109053333D01*
X151058571Y-109005714D01*
X151201428Y-109005714D01*
X151296666Y-109053333D01*
X151344285Y-109148571D01*
X151344285Y-109672380D01*
X152249047Y-109672380D02*
X152249047Y-108672380D01*
X152249047Y-109624761D02*
X152153809Y-109672380D01*
X151963333Y-109672380D01*
X151868095Y-109624761D01*
X151820476Y-109577142D01*
X151772857Y-109481904D01*
X151772857Y-109196190D01*
X151820476Y-109100952D01*
X151868095Y-109053333D01*
X151963333Y-109005714D01*
X152153809Y-109005714D01*
X152249047Y-109053333D01*
X150368095Y-106180000D02*
X150272857Y-106132380D01*
X150130000Y-106132380D01*
X149987142Y-106180000D01*
X149891904Y-106275238D01*
X149844285Y-106370476D01*
X149796666Y-106560952D01*
X149796666Y-106703809D01*
X149844285Y-106894285D01*
X149891904Y-106989523D01*
X149987142Y-107084761D01*
X150130000Y-107132380D01*
X150225238Y-107132380D01*
X150368095Y-107084761D01*
X150415714Y-107037142D01*
X150415714Y-106703809D01*
X150225238Y-106703809D01*
X150844285Y-107132380D02*
X150844285Y-106132380D01*
X151415714Y-107132380D01*
X151415714Y-106132380D01*
X151891904Y-107132380D02*
X151891904Y-106132380D01*
X152130000Y-106132380D01*
X152272857Y-106180000D01*
X152368095Y-106275238D01*
X152415714Y-106370476D01*
X152463333Y-106560952D01*
X152463333Y-106703809D01*
X152415714Y-106894285D01*
X152368095Y-106989523D01*
X152272857Y-107084761D01*
X152130000Y-107132380D01*
X151891904Y-107132380D01*
X150868095Y-112212380D02*
X150868095Y-111212380D01*
X151439523Y-112212380D02*
X151010952Y-111640952D01*
X151439523Y-111212380D02*
X150868095Y-111783809D01*
X150915714Y-104068571D02*
X151249047Y-104068571D01*
X151391904Y-104592380D02*
X150915714Y-104592380D01*
X150915714Y-103592380D01*
X151391904Y-103592380D01*
D11*
%TO.C,U1*%
X147260000Y-113090000D02*
X149920000Y-113090000D01*
X147260000Y-105410000D02*
X147260000Y-113090000D01*
X149920000Y-105410000D02*
X149920000Y-113090000D01*
X147260000Y-105410000D02*
X149920000Y-105410000D01*
X147260000Y-104140000D02*
X147260000Y-102810000D01*
X147260000Y-102810000D02*
X148590000Y-102810000D01*
%TO.C,Vin2*%
X231080000Y-88730000D02*
X233740000Y-88730000D01*
X233740000Y-88730000D02*
X233740000Y-86070000D01*
X233740000Y-86070000D02*
X231080000Y-86070000D01*
X231080000Y-86070000D02*
X231080000Y-88730000D01*
X232030000Y-86070000D02*
X232030000Y-80070000D01*
X232030000Y-80070000D02*
X232790000Y-80070000D01*
X232790000Y-80070000D02*
X232790000Y-86070000D01*
X232090000Y-86070000D02*
X232090000Y-80070000D01*
X232210000Y-86070000D02*
X232210000Y-80070000D01*
X232330000Y-86070000D02*
X232330000Y-80070000D01*
X232450000Y-86070000D02*
X232450000Y-80070000D01*
X232570000Y-86070000D02*
X232570000Y-80070000D01*
X232690000Y-86070000D02*
X232690000Y-80070000D01*
X232030000Y-89060000D02*
X232030000Y-88730000D01*
X232790000Y-89060000D02*
X232790000Y-88730000D01*
X232410000Y-91440000D02*
X231140000Y-91440000D01*
X231140000Y-91440000D02*
X231140000Y-90170000D01*
%TO.C,OUT1*%
X245280000Y-105350000D02*
X245280000Y-108010000D01*
X245280000Y-108010000D02*
X247940000Y-108010000D01*
X247940000Y-108010000D02*
X247940000Y-105350000D01*
X247940000Y-105350000D02*
X245280000Y-105350000D01*
X247940000Y-106300000D02*
X253940000Y-106300000D01*
X253940000Y-106300000D02*
X253940000Y-107060000D01*
X253940000Y-107060000D02*
X247940000Y-107060000D01*
X247940000Y-106360000D02*
X253940000Y-106360000D01*
X247940000Y-106480000D02*
X253940000Y-106480000D01*
X247940000Y-106600000D02*
X253940000Y-106600000D01*
X247940000Y-106720000D02*
X253940000Y-106720000D01*
X247940000Y-106840000D02*
X253940000Y-106840000D01*
X247940000Y-106960000D02*
X253940000Y-106960000D01*
X244950000Y-106300000D02*
X245280000Y-106300000D01*
X244950000Y-107060000D02*
X245280000Y-107060000D01*
X242570000Y-106680000D02*
X242570000Y-105410000D01*
X242570000Y-105410000D02*
X243840000Y-105410000D01*
D12*
%TO.C,D2*%
X236270000Y-117250000D02*
G75*
G03*
X236270000Y-117250000I-50000J0D01*
G01*
%TO.C,D1*%
X232460000Y-100740000D02*
G75*
G03*
X232460000Y-100740000I-50000J0D01*
G01*
D11*
%TO.C,C1*%
X165880000Y-99840000D02*
X165880000Y-100540000D01*
X165880000Y-103360000D02*
X165880000Y-102660000D01*
X168510563Y-103360000D02*
X165880000Y-103360000D01*
X168510563Y-99840000D02*
X165880000Y-99840000D01*
X169210563Y-102660000D02*
X168510563Y-103360000D01*
X169210563Y-100540000D02*
X168510563Y-99840000D01*
X170015000Y-103035000D02*
X169640000Y-103035000D01*
X169827500Y-103222500D02*
X169827500Y-102847500D01*
D13*
%TO.C,U2*%
X180485000Y-104140000D02*
G75*
G03*
X180485000Y-104140000I-100000J0D01*
G01*
D14*
X182245000Y-103155000D02*
X188595000Y-103155000D01*
X182245000Y-112745000D02*
X188595000Y-112745000D01*
D11*
%TO.C,gnd1*%
X170240000Y-138600000D02*
X167580000Y-138600000D01*
X167580000Y-138600000D02*
X167580000Y-141260000D01*
X167580000Y-141260000D02*
X170240000Y-141260000D01*
X170240000Y-141260000D02*
X170240000Y-138600000D01*
X169290000Y-141260000D02*
X169290000Y-147260000D01*
X169290000Y-147260000D02*
X168530000Y-147260000D01*
X168530000Y-147260000D02*
X168530000Y-141260000D01*
X169230000Y-141260000D02*
X169230000Y-147260000D01*
X169110000Y-141260000D02*
X169110000Y-147260000D01*
X168990000Y-141260000D02*
X168990000Y-147260000D01*
X168870000Y-141260000D02*
X168870000Y-147260000D01*
X168750000Y-141260000D02*
X168750000Y-147260000D01*
X168630000Y-141260000D02*
X168630000Y-147260000D01*
X169290000Y-138270000D02*
X169290000Y-138600000D01*
X168530000Y-138270000D02*
X168530000Y-138600000D01*
X168910000Y-135890000D02*
X170180000Y-135890000D01*
X170180000Y-135890000D02*
X170180000Y-137160000D01*
%TO.C,Vin1*%
X154880000Y-92540000D02*
X157540000Y-92540000D01*
X157540000Y-92540000D02*
X157540000Y-89880000D01*
X157540000Y-89880000D02*
X154880000Y-89880000D01*
X154880000Y-89880000D02*
X154880000Y-92540000D01*
X155830000Y-89880000D02*
X155830000Y-83880000D01*
X155830000Y-83880000D02*
X156590000Y-83880000D01*
X156590000Y-83880000D02*
X156590000Y-89880000D01*
X155890000Y-89880000D02*
X155890000Y-83880000D01*
X156010000Y-89880000D02*
X156010000Y-83880000D01*
X156130000Y-89880000D02*
X156130000Y-83880000D01*
X156250000Y-89880000D02*
X156250000Y-83880000D01*
X156370000Y-89880000D02*
X156370000Y-83880000D01*
X156490000Y-89880000D02*
X156490000Y-83880000D01*
X155830000Y-92870000D02*
X155830000Y-92540000D01*
X156590000Y-92870000D02*
X156590000Y-92540000D01*
X156210000Y-95250000D02*
X154940000Y-95250000D01*
X154940000Y-95250000D02*
X154940000Y-93980000D01*
%TO.C,U1*%
D15*
X147828095Y-101262380D02*
X147828095Y-102071904D01*
X147875714Y-102167142D01*
X147923333Y-102214761D01*
X148018571Y-102262380D01*
X148209047Y-102262380D01*
X148304285Y-102214761D01*
X148351904Y-102167142D01*
X148399523Y-102071904D01*
X148399523Y-101262380D01*
X149399523Y-102262380D02*
X148828095Y-102262380D01*
X149113809Y-102262380D02*
X149113809Y-101262380D01*
X149018571Y-101405238D01*
X148923333Y-101500476D01*
X148828095Y-101548095D01*
%TO.C,Vin2*%
X229592380Y-87285000D02*
X230592380Y-86951666D01*
X229592380Y-86618333D01*
X230592380Y-86285000D02*
X229925714Y-86285000D01*
X229592380Y-86285000D02*
X229640000Y-86332619D01*
X229687619Y-86285000D01*
X229640000Y-86237380D01*
X229592380Y-86285000D01*
X229687619Y-86285000D01*
X229925714Y-85808809D02*
X230592380Y-85808809D01*
X230020952Y-85808809D02*
X229973333Y-85761190D01*
X229925714Y-85665952D01*
X229925714Y-85523095D01*
X229973333Y-85427857D01*
X230068571Y-85380238D01*
X230592380Y-85380238D01*
X229687619Y-84951666D02*
X229640000Y-84904047D01*
X229592380Y-84808809D01*
X229592380Y-84570714D01*
X229640000Y-84475476D01*
X229687619Y-84427857D01*
X229782857Y-84380238D01*
X229878095Y-84380238D01*
X230020952Y-84427857D01*
X230592380Y-84999285D01*
X230592380Y-84380238D01*
%TO.C,OUT1*%
X246748809Y-103862380D02*
X246939285Y-103862380D01*
X247034523Y-103910000D01*
X247129761Y-104005238D01*
X247177380Y-104195714D01*
X247177380Y-104529047D01*
X247129761Y-104719523D01*
X247034523Y-104814761D01*
X246939285Y-104862380D01*
X246748809Y-104862380D01*
X246653571Y-104814761D01*
X246558333Y-104719523D01*
X246510714Y-104529047D01*
X246510714Y-104195714D01*
X246558333Y-104005238D01*
X246653571Y-103910000D01*
X246748809Y-103862380D01*
X247605952Y-103862380D02*
X247605952Y-104671904D01*
X247653571Y-104767142D01*
X247701190Y-104814761D01*
X247796428Y-104862380D01*
X247986904Y-104862380D01*
X248082142Y-104814761D01*
X248129761Y-104767142D01*
X248177380Y-104671904D01*
X248177380Y-103862380D01*
X248510714Y-103862380D02*
X249082142Y-103862380D01*
X248796428Y-104862380D02*
X248796428Y-103862380D01*
X249939285Y-104862380D02*
X249367857Y-104862380D01*
X249653571Y-104862380D02*
X249653571Y-103862380D01*
X249558333Y-104005238D01*
X249463095Y-104100476D01*
X249367857Y-104148095D01*
%TO.C,R9*%
X219543333Y-109452380D02*
X219210000Y-108976190D01*
X218971904Y-109452380D02*
X218971904Y-108452380D01*
X219352857Y-108452380D01*
X219448095Y-108500000D01*
X219495714Y-108547619D01*
X219543333Y-108642857D01*
X219543333Y-108785714D01*
X219495714Y-108880952D01*
X219448095Y-108928571D01*
X219352857Y-108976190D01*
X218971904Y-108976190D01*
X220019523Y-109452380D02*
X220210000Y-109452380D01*
X220305238Y-109404761D01*
X220352857Y-109357142D01*
X220448095Y-109214285D01*
X220495714Y-109023809D01*
X220495714Y-108642857D01*
X220448095Y-108547619D01*
X220400476Y-108500000D01*
X220305238Y-108452380D01*
X220114761Y-108452380D01*
X220019523Y-108500000D01*
X219971904Y-108547619D01*
X219924285Y-108642857D01*
X219924285Y-108880952D01*
X219971904Y-108976190D01*
X220019523Y-109023809D01*
X220114761Y-109071428D01*
X220305238Y-109071428D01*
X220400476Y-109023809D01*
X220448095Y-108976190D01*
X220495714Y-108880952D01*
%TO.C,R8*%
X207163333Y-109892380D02*
X206830000Y-109416190D01*
X206591904Y-109892380D02*
X206591904Y-108892380D01*
X206972857Y-108892380D01*
X207068095Y-108940000D01*
X207115714Y-108987619D01*
X207163333Y-109082857D01*
X207163333Y-109225714D01*
X207115714Y-109320952D01*
X207068095Y-109368571D01*
X206972857Y-109416190D01*
X206591904Y-109416190D01*
X207734761Y-109320952D02*
X207639523Y-109273333D01*
X207591904Y-109225714D01*
X207544285Y-109130476D01*
X207544285Y-109082857D01*
X207591904Y-108987619D01*
X207639523Y-108940000D01*
X207734761Y-108892380D01*
X207925238Y-108892380D01*
X208020476Y-108940000D01*
X208068095Y-108987619D01*
X208115714Y-109082857D01*
X208115714Y-109130476D01*
X208068095Y-109225714D01*
X208020476Y-109273333D01*
X207925238Y-109320952D01*
X207734761Y-109320952D01*
X207639523Y-109368571D01*
X207591904Y-109416190D01*
X207544285Y-109511428D01*
X207544285Y-109701904D01*
X207591904Y-109797142D01*
X207639523Y-109844761D01*
X207734761Y-109892380D01*
X207925238Y-109892380D01*
X208020476Y-109844761D01*
X208068095Y-109797142D01*
X208115714Y-109701904D01*
X208115714Y-109511428D01*
X208068095Y-109416190D01*
X208020476Y-109368571D01*
X207925238Y-109320952D01*
%TO.C,R3*%
X168312380Y-114466666D02*
X167836190Y-114800000D01*
X168312380Y-115038095D02*
X167312380Y-115038095D01*
X167312380Y-114657142D01*
X167360000Y-114561904D01*
X167407619Y-114514285D01*
X167502857Y-114466666D01*
X167645714Y-114466666D01*
X167740952Y-114514285D01*
X167788571Y-114561904D01*
X167836190Y-114657142D01*
X167836190Y-115038095D01*
X167312380Y-114133333D02*
X167312380Y-113514285D01*
X167693333Y-113847619D01*
X167693333Y-113704761D01*
X167740952Y-113609523D01*
X167788571Y-113561904D01*
X167883809Y-113514285D01*
X168121904Y-113514285D01*
X168217142Y-113561904D01*
X168264761Y-113609523D01*
X168312380Y-113704761D01*
X168312380Y-113990476D01*
X168264761Y-114085714D01*
X168217142Y-114133333D01*
%TO.C,D2*%
X237722380Y-118848095D02*
X236722380Y-118848095D01*
X236722380Y-118610000D01*
X236770000Y-118467142D01*
X236865238Y-118371904D01*
X236960476Y-118324285D01*
X237150952Y-118276666D01*
X237293809Y-118276666D01*
X237484285Y-118324285D01*
X237579523Y-118371904D01*
X237674761Y-118467142D01*
X237722380Y-118610000D01*
X237722380Y-118848095D01*
X236817619Y-117895714D02*
X236770000Y-117848095D01*
X236722380Y-117752857D01*
X236722380Y-117514761D01*
X236770000Y-117419523D01*
X236817619Y-117371904D01*
X236912857Y-117324285D01*
X237008095Y-117324285D01*
X237150952Y-117371904D01*
X237722380Y-117943333D01*
X237722380Y-117324285D01*
%TO.C,D1*%
X233912380Y-102338095D02*
X232912380Y-102338095D01*
X232912380Y-102100000D01*
X232960000Y-101957142D01*
X233055238Y-101861904D01*
X233150476Y-101814285D01*
X233340952Y-101766666D01*
X233483809Y-101766666D01*
X233674285Y-101814285D01*
X233769523Y-101861904D01*
X233864761Y-101957142D01*
X233912380Y-102100000D01*
X233912380Y-102338095D01*
X233912380Y-100814285D02*
X233912380Y-101385714D01*
X233912380Y-101100000D02*
X232912380Y-101100000D01*
X233055238Y-101195238D01*
X233150476Y-101290476D01*
X233198095Y-101385714D01*
%TO.C,C1*%
X167473333Y-104657142D02*
X167425714Y-104704761D01*
X167282857Y-104752380D01*
X167187619Y-104752380D01*
X167044761Y-104704761D01*
X166949523Y-104609523D01*
X166901904Y-104514285D01*
X166854285Y-104323809D01*
X166854285Y-104180952D01*
X166901904Y-103990476D01*
X166949523Y-103895238D01*
X167044761Y-103800000D01*
X167187619Y-103752380D01*
X167282857Y-103752380D01*
X167425714Y-103800000D01*
X167473333Y-103847619D01*
X168425714Y-104752380D02*
X167854285Y-104752380D01*
X168140000Y-104752380D02*
X168140000Y-103752380D01*
X168044761Y-103895238D01*
X167949523Y-103990476D01*
X167854285Y-104038095D01*
%TO.C,1k2*%
X204702380Y-117435238D02*
X204702380Y-118006666D01*
X204702380Y-117720952D02*
X203702380Y-117720952D01*
X203845238Y-117816190D01*
X203940476Y-117911428D01*
X203988095Y-118006666D01*
X204702380Y-117006666D02*
X203702380Y-117006666D01*
X204321428Y-116911428D02*
X204702380Y-116625714D01*
X204035714Y-116625714D02*
X204416666Y-117006666D01*
X203797619Y-116244761D02*
X203750000Y-116197142D01*
X203702380Y-116101904D01*
X203702380Y-115863809D01*
X203750000Y-115768571D01*
X203797619Y-115720952D01*
X203892857Y-115673333D01*
X203988095Y-115673333D01*
X204130952Y-115720952D01*
X204702380Y-116292380D01*
X204702380Y-115673333D01*
%TO.C,U2*%
X184093095Y-101795380D02*
X184093095Y-102604904D01*
X184140714Y-102700142D01*
X184188333Y-102747761D01*
X184283571Y-102795380D01*
X184474047Y-102795380D01*
X184569285Y-102747761D01*
X184616904Y-102700142D01*
X184664523Y-102604904D01*
X184664523Y-101795380D01*
X185093095Y-101890619D02*
X185140714Y-101843000D01*
X185235952Y-101795380D01*
X185474047Y-101795380D01*
X185569285Y-101843000D01*
X185616904Y-101890619D01*
X185664523Y-101985857D01*
X185664523Y-102081095D01*
X185616904Y-102223952D01*
X185045476Y-102795380D01*
X185664523Y-102795380D01*
%TO.C,gnd1*%
X170965714Y-142711666D02*
X171775238Y-142711666D01*
X171870476Y-142759285D01*
X171918095Y-142806904D01*
X171965714Y-142902142D01*
X171965714Y-143045000D01*
X171918095Y-143140238D01*
X171584761Y-142711666D02*
X171632380Y-142806904D01*
X171632380Y-142997380D01*
X171584761Y-143092619D01*
X171537142Y-143140238D01*
X171441904Y-143187857D01*
X171156190Y-143187857D01*
X171060952Y-143140238D01*
X171013333Y-143092619D01*
X170965714Y-142997380D01*
X170965714Y-142806904D01*
X171013333Y-142711666D01*
X170965714Y-142235476D02*
X171632380Y-142235476D01*
X171060952Y-142235476D02*
X171013333Y-142187857D01*
X170965714Y-142092619D01*
X170965714Y-141949761D01*
X171013333Y-141854523D01*
X171108571Y-141806904D01*
X171632380Y-141806904D01*
X171632380Y-140902142D02*
X170632380Y-140902142D01*
X171584761Y-140902142D02*
X171632380Y-140997380D01*
X171632380Y-141187857D01*
X171584761Y-141283095D01*
X171537142Y-141330714D01*
X171441904Y-141378333D01*
X171156190Y-141378333D01*
X171060952Y-141330714D01*
X171013333Y-141283095D01*
X170965714Y-141187857D01*
X170965714Y-140997380D01*
X171013333Y-140902142D01*
X171632380Y-139902142D02*
X171632380Y-140473571D01*
X171632380Y-140187857D02*
X170632380Y-140187857D01*
X170775238Y-140283095D01*
X170870476Y-140378333D01*
X170918095Y-140473571D01*
%TO.C,Vin1*%
X153392380Y-91095000D02*
X154392380Y-90761666D01*
X153392380Y-90428333D01*
X154392380Y-90095000D02*
X153725714Y-90095000D01*
X153392380Y-90095000D02*
X153440000Y-90142619D01*
X153487619Y-90095000D01*
X153440000Y-90047380D01*
X153392380Y-90095000D01*
X153487619Y-90095000D01*
X153725714Y-89618809D02*
X154392380Y-89618809D01*
X153820952Y-89618809D02*
X153773333Y-89571190D01*
X153725714Y-89475952D01*
X153725714Y-89333095D01*
X153773333Y-89237857D01*
X153868571Y-89190238D01*
X154392380Y-89190238D01*
X154392380Y-88190238D02*
X154392380Y-88761666D01*
X154392380Y-88475952D02*
X153392380Y-88475952D01*
X153535238Y-88571190D01*
X153630476Y-88666428D01*
X153678095Y-88761666D01*
%TO.C,R2*%
X162393333Y-99732380D02*
X162060000Y-99256190D01*
X161821904Y-99732380D02*
X161821904Y-98732380D01*
X162202857Y-98732380D01*
X162298095Y-98780000D01*
X162345714Y-98827619D01*
X162393333Y-98922857D01*
X162393333Y-99065714D01*
X162345714Y-99160952D01*
X162298095Y-99208571D01*
X162202857Y-99256190D01*
X161821904Y-99256190D01*
X162774285Y-98827619D02*
X162821904Y-98780000D01*
X162917142Y-98732380D01*
X163155238Y-98732380D01*
X163250476Y-98780000D01*
X163298095Y-98827619D01*
X163345714Y-98922857D01*
X163345714Y-99018095D01*
X163298095Y-99160952D01*
X162726666Y-99732380D01*
X163345714Y-99732380D01*
%TO.C,R1*%
X153503333Y-101832380D02*
X153170000Y-101356190D01*
X152931904Y-101832380D02*
X152931904Y-100832380D01*
X153312857Y-100832380D01*
X153408095Y-100880000D01*
X153455714Y-100927619D01*
X153503333Y-101022857D01*
X153503333Y-101165714D01*
X153455714Y-101260952D01*
X153408095Y-101308571D01*
X153312857Y-101356190D01*
X152931904Y-101356190D01*
X154455714Y-101832380D02*
X153884285Y-101832380D01*
X154170000Y-101832380D02*
X154170000Y-100832380D01*
X154074761Y-100975238D01*
X153979523Y-101070476D01*
X153884285Y-101118095D01*
%TD*%
M02*
