%TF.GenerationSoftware,KiCad,Pcbnew,(5.1.10)-1*%
%TF.CreationDate,2021-11-07T17:17:01-05:00*%
%TF.ProjectId,kicad,6b696361-642e-46b6-9963-61645f706362,rev?*%
%TF.SameCoordinates,Original*%
%TF.FileFunction,Copper,L32,Bot*%
%TF.FilePolarity,Positive*%
%FSLAX46Y46*%
G04 Gerber Fmt 4.6, Leading zero omitted, Abs format (unit mm)*
G04 Created by KiCad (PCBNEW (5.1.10)-1) date 2021-11-07 17:17:01*
%MOMM*%
%LPD*%
G01*
G04 APERTURE LIST*
%TA.AperFunction,ComponentPad*%
%ADD10R,1.130000X1.130000*%
%TD*%
%TA.AperFunction,ComponentPad*%
%ADD11C,1.130000*%
%TD*%
%TA.AperFunction,ComponentPad*%
%ADD12R,1.700000X1.700000*%
%TD*%
%TA.AperFunction,ComponentPad*%
%ADD13O,1.700000X1.700000*%
%TD*%
%TA.AperFunction,Conductor*%
%ADD14C,0.250000*%
%TD*%
G04 APERTURE END LIST*
D10*
%TO.P,U3,1*%
%TO.N,Net-(R8-Pad1)*%
X201930000Y-138270000D03*
D11*
%TO.P,U3,2*%
%TO.N,Net-(1k2-Pad1)*%
X199390000Y-138270000D03*
%TO.P,U3,3*%
%TO.N,Net-(C2-Pad1)*%
X196850000Y-138270000D03*
%TO.P,U3,4*%
%TO.N,N/C*%
X194310000Y-138270000D03*
%TO.P,U3,5*%
X194310000Y-146210000D03*
%TO.P,U3,6*%
X196850000Y-146210000D03*
%TO.P,U3,7*%
X199390000Y-146210000D03*
%TO.P,U3,8*%
X201930000Y-146210000D03*
%TD*%
D12*
%TO.P,gnd1,1*%
%TO.N,Net-(1k2-Pad2)*%
X168910000Y-137160000D03*
%TD*%
%TO.P,1k2,1*%
%TO.N,Net-(1k2-Pad1)*%
%TA.AperFunction,SMDPad,CuDef*%
G36*
G01*
X186290000Y-147220000D02*
X186290000Y-147420000D01*
G75*
G02*
X186190000Y-147520000I-100000J0D01*
G01*
X185930000Y-147520000D01*
G75*
G02*
X185830000Y-147420000I0J100000D01*
G01*
X185830000Y-147220000D01*
G75*
G02*
X185930000Y-147120000I100000J0D01*
G01*
X186190000Y-147120000D01*
G75*
G02*
X186290000Y-147220000I0J-100000D01*
G01*
G37*
%TD.AperFunction*%
%TO.P,1k2,2*%
%TO.N,Net-(1k2-Pad2)*%
%TA.AperFunction,SMDPad,CuDef*%
G36*
G01*
X185650000Y-147220000D02*
X185650000Y-147420000D01*
G75*
G02*
X185550000Y-147520000I-100000J0D01*
G01*
X185290000Y-147520000D01*
G75*
G02*
X185190000Y-147420000I0J100000D01*
G01*
X185190000Y-147220000D01*
G75*
G02*
X185290000Y-147120000I100000J0D01*
G01*
X185550000Y-147120000D01*
G75*
G02*
X185650000Y-147220000I0J-100000D01*
G01*
G37*
%TD.AperFunction*%
%TD*%
%TO.P,Vin2,1*%
%TO.N,Net-(D1-Pad1)*%
X226060000Y-114300000D03*
%TD*%
%TO.P,Vin1,1*%
%TO.N,Net-(R1-Pad1)*%
X156210000Y-93980000D03*
%TD*%
D11*
%TO.P,U2,8*%
%TO.N,N/C*%
X186690000Y-103980000D03*
%TO.P,U2,7*%
X189230000Y-103980000D03*
%TO.P,U2,6*%
X191770000Y-103980000D03*
%TO.P,U2,5*%
X194310000Y-103980000D03*
%TO.P,U2,4*%
X194310000Y-111920000D03*
%TO.P,U2,3*%
%TO.N,Net-(C1-Pad1)*%
X191770000Y-111920000D03*
%TO.P,U2,2*%
%TO.N,Net-(R5-Pad2)*%
X189230000Y-111920000D03*
D10*
%TO.P,U2,1*%
%TO.N,Net-(R5-Pad1)*%
X186690000Y-111920000D03*
%TD*%
D12*
%TO.P,U1,1*%
%TO.N,Net-(R1-Pad2)*%
X149145001Y-103425001D03*
D13*
%TO.P,U1,2*%
%TO.N,Net-(1k2-Pad2)*%
X149145001Y-105965001D03*
%TO.P,U1,3*%
X149145001Y-108505001D03*
%TO.P,U1,4*%
%TO.N,Net-(C1-Pad2)*%
X149145001Y-111045001D03*
%TO.P,U1,5*%
%TO.N,N/C*%
X149145001Y-113585001D03*
%TO.P,U1,6*%
X149145001Y-116125001D03*
%TO.P,U1,7*%
X149145001Y-118665001D03*
%TO.P,U1,8*%
X149145001Y-121205001D03*
%TD*%
%TO.P,R8,1*%
%TO.N,Net-(R8-Pad1)*%
%TA.AperFunction,SMDPad,CuDef*%
G36*
G01*
X192320000Y-133250000D02*
X192320000Y-133450000D01*
G75*
G02*
X192220000Y-133550000I-100000J0D01*
G01*
X191960000Y-133550000D01*
G75*
G02*
X191860000Y-133450000I0J100000D01*
G01*
X191860000Y-133250000D01*
G75*
G02*
X191960000Y-133150000I100000J0D01*
G01*
X192220000Y-133150000D01*
G75*
G02*
X192320000Y-133250000I0J-100000D01*
G01*
G37*
%TD.AperFunction*%
%TO.P,R8,2*%
%TO.N,Net-(1k2-Pad1)*%
%TA.AperFunction,SMDPad,CuDef*%
G36*
G01*
X191680000Y-133250000D02*
X191680000Y-133450000D01*
G75*
G02*
X191580000Y-133550000I-100000J0D01*
G01*
X191320000Y-133550000D01*
G75*
G02*
X191220000Y-133450000I0J100000D01*
G01*
X191220000Y-133250000D01*
G75*
G02*
X191320000Y-133150000I100000J0D01*
G01*
X191580000Y-133150000D01*
G75*
G02*
X191680000Y-133250000I0J-100000D01*
G01*
G37*
%TD.AperFunction*%
%TD*%
D14*
%TO.N,Net-(1k2-Pad1)*%
X196690000Y-140970000D02*
X199390000Y-138270000D01*
X193990000Y-140970000D02*
X196690000Y-140970000D01*
X193990000Y-140970000D02*
X191534990Y-138514990D01*
X191534990Y-133434990D02*
X191450000Y-133350000D01*
X191534990Y-138514990D02*
X191534990Y-133434990D01*
X186060000Y-147320000D02*
X187640000Y-147320000D01*
X187640000Y-147320000D02*
X193990000Y-140970000D01*
%TO.N,Net-(R8-Pad1)*%
X200707202Y-138270000D02*
X201930000Y-138270000D01*
X195787202Y-133350000D02*
X200707202Y-138270000D01*
X192090000Y-133350000D02*
X195787202Y-133350000D01*
%TO.N,Net-(1k2-Pad2)*%
X168910000Y-128270000D02*
X149145001Y-108505001D01*
X168910000Y-137160000D02*
X168910000Y-128270000D01*
X168910000Y-137160000D02*
X184150000Y-137160000D01*
X184150000Y-137160000D02*
X184150000Y-140970000D01*
X185420000Y-142240000D02*
X184150000Y-140970000D01*
X185420000Y-147320000D02*
X185420000Y-142240000D01*
%TD*%
M02*
