%TF.GenerationSoftware,KiCad,Pcbnew,(5.1.10)-1*%
%TF.CreationDate,2021-11-07T17:10:54-05:00*%
%TF.ProjectId,kicad,6b696361-642e-46b6-9963-61645f706362,rev?*%
%TF.SameCoordinates,Original*%
%TF.FileFunction,Copper,L1,Top*%
%TF.FilePolarity,Positive*%
%FSLAX46Y46*%
G04 Gerber Fmt 4.6, Leading zero omitted, Abs format (unit mm)*
G04 Created by KiCad (PCBNEW (5.1.10)-1) date 2021-11-07 17:10:54*
%MOMM*%
%LPD*%
G01*
G04 APERTURE LIST*
%TA.AperFunction,ComponentPad*%
%ADD10R,1.130000X1.130000*%
%TD*%
%TA.AperFunction,ComponentPad*%
%ADD11C,1.130000*%
%TD*%
%TA.AperFunction,ComponentPad*%
%ADD12R,1.700000X1.700000*%
%TD*%
%TA.AperFunction,ComponentPad*%
%ADD13O,1.700000X1.700000*%
%TD*%
%TA.AperFunction,Conductor*%
%ADD14C,0.250000*%
%TD*%
G04 APERTURE END LIST*
D10*
%TO.P,U3,1*%
%TO.N,Net-(R8-Pad1)*%
X201930000Y-138270000D03*
D11*
%TO.P,U3,2*%
%TO.N,Net-(1k2-Pad1)*%
X199390000Y-138270000D03*
%TO.P,U3,3*%
%TO.N,Net-(C2-Pad1)*%
X196850000Y-138270000D03*
%TO.P,U3,4*%
%TO.N,N/C*%
X194310000Y-138270000D03*
%TO.P,U3,5*%
X194310000Y-146210000D03*
%TO.P,U3,6*%
X196850000Y-146210000D03*
%TO.P,U3,7*%
X199390000Y-146210000D03*
%TO.P,U3,8*%
X201930000Y-146210000D03*
%TD*%
D12*
%TO.P,gnd1,1*%
%TO.N,Net-(1k2-Pad2)*%
X168910000Y-137160000D03*
%TD*%
%TO.P,Vin2,1*%
%TO.N,Net-(D1-Pad1)*%
X226060000Y-114300000D03*
%TD*%
%TO.P,Vin1,1*%
%TO.N,Net-(R1-Pad1)*%
X156210000Y-93980000D03*
%TD*%
D11*
%TO.P,U2,8*%
%TO.N,N/C*%
X186690000Y-103980000D03*
%TO.P,U2,7*%
X189230000Y-103980000D03*
%TO.P,U2,6*%
X191770000Y-103980000D03*
%TO.P,U2,5*%
X194310000Y-103980000D03*
%TO.P,U2,4*%
X194310000Y-111920000D03*
%TO.P,U2,3*%
%TO.N,Net-(C1-Pad1)*%
X191770000Y-111920000D03*
%TO.P,U2,2*%
%TO.N,Net-(R5-Pad2)*%
X189230000Y-111920000D03*
D10*
%TO.P,U2,1*%
%TO.N,Net-(R5-Pad1)*%
X186690000Y-111920000D03*
%TD*%
D12*
%TO.P,U1,1*%
%TO.N,Net-(R1-Pad2)*%
X149145001Y-103425001D03*
D13*
%TO.P,U1,2*%
%TO.N,Net-(1k2-Pad2)*%
X149145001Y-105965001D03*
%TO.P,U1,3*%
X149145001Y-108505001D03*
%TO.P,U1,4*%
%TO.N,Net-(C1-Pad2)*%
X149145001Y-111045001D03*
%TO.P,U1,5*%
%TO.N,N/C*%
X149145001Y-113585001D03*
%TO.P,U1,6*%
X149145001Y-116125001D03*
%TO.P,U1,7*%
X149145001Y-118665001D03*
%TO.P,U1,8*%
X149145001Y-121205001D03*
%TD*%
%TO.P,R9,1*%
%TO.N,Net-(D1-Pad2)*%
%TA.AperFunction,SMDPad,CuDef*%
G36*
G01*
X220260000Y-138330000D02*
X220260000Y-138530000D01*
G75*
G02*
X220160000Y-138630000I-100000J0D01*
G01*
X219900000Y-138630000D01*
G75*
G02*
X219800000Y-138530000I0J100000D01*
G01*
X219800000Y-138330000D01*
G75*
G02*
X219900000Y-138230000I100000J0D01*
G01*
X220160000Y-138230000D01*
G75*
G02*
X220260000Y-138330000I0J-100000D01*
G01*
G37*
%TD.AperFunction*%
%TO.P,R9,2*%
%TO.N,Net-(R8-Pad1)*%
%TA.AperFunction,SMDPad,CuDef*%
G36*
G01*
X219620000Y-138330000D02*
X219620000Y-138530000D01*
G75*
G02*
X219520000Y-138630000I-100000J0D01*
G01*
X219260000Y-138630000D01*
G75*
G02*
X219160000Y-138530000I0J100000D01*
G01*
X219160000Y-138330000D01*
G75*
G02*
X219260000Y-138230000I100000J0D01*
G01*
X219520000Y-138230000D01*
G75*
G02*
X219620000Y-138330000I0J-100000D01*
G01*
G37*
%TD.AperFunction*%
%TD*%
%TO.P,R6,1*%
%TO.N,Net-(R5-Pad1)*%
%TA.AperFunction,SMDPad,CuDef*%
G36*
G01*
X186140000Y-125830000D02*
X186140000Y-125630000D01*
G75*
G02*
X186240000Y-125530000I100000J0D01*
G01*
X186500000Y-125530000D01*
G75*
G02*
X186600000Y-125630000I0J-100000D01*
G01*
X186600000Y-125830000D01*
G75*
G02*
X186500000Y-125930000I-100000J0D01*
G01*
X186240000Y-125930000D01*
G75*
G02*
X186140000Y-125830000I0J100000D01*
G01*
G37*
%TD.AperFunction*%
%TO.P,R6,2*%
%TO.N,Net-(C2-Pad1)*%
%TA.AperFunction,SMDPad,CuDef*%
G36*
G01*
X186780000Y-125830000D02*
X186780000Y-125630000D01*
G75*
G02*
X186880000Y-125530000I100000J0D01*
G01*
X187140000Y-125530000D01*
G75*
G02*
X187240000Y-125630000I0J-100000D01*
G01*
X187240000Y-125830000D01*
G75*
G02*
X187140000Y-125930000I-100000J0D01*
G01*
X186880000Y-125930000D01*
G75*
G02*
X186780000Y-125830000I0J100000D01*
G01*
G37*
%TD.AperFunction*%
%TD*%
%TO.P,R5,2*%
%TO.N,Net-(R5-Pad2)*%
%TA.AperFunction,SMDPad,CuDef*%
G36*
G01*
X186590000Y-114710000D02*
X186790000Y-114710000D01*
G75*
G02*
X186890000Y-114810000I0J-100000D01*
G01*
X186890000Y-115070000D01*
G75*
G02*
X186790000Y-115170000I-100000J0D01*
G01*
X186590000Y-115170000D01*
G75*
G02*
X186490000Y-115070000I0J100000D01*
G01*
X186490000Y-114810000D01*
G75*
G02*
X186590000Y-114710000I100000J0D01*
G01*
G37*
%TD.AperFunction*%
%TO.P,R5,1*%
%TO.N,Net-(R5-Pad1)*%
%TA.AperFunction,SMDPad,CuDef*%
G36*
G01*
X186590000Y-114070000D02*
X186790000Y-114070000D01*
G75*
G02*
X186890000Y-114170000I0J-100000D01*
G01*
X186890000Y-114430000D01*
G75*
G02*
X186790000Y-114530000I-100000J0D01*
G01*
X186590000Y-114530000D01*
G75*
G02*
X186490000Y-114430000I0J100000D01*
G01*
X186490000Y-114170000D01*
G75*
G02*
X186590000Y-114070000I100000J0D01*
G01*
G37*
%TD.AperFunction*%
%TD*%
%TO.P,r4,1*%
%TO.N,Net-(R5-Pad2)*%
%TA.AperFunction,SMDPad,CuDef*%
G36*
G01*
X189130000Y-116290000D02*
X189330000Y-116290000D01*
G75*
G02*
X189430000Y-116390000I0J-100000D01*
G01*
X189430000Y-116650000D01*
G75*
G02*
X189330000Y-116750000I-100000J0D01*
G01*
X189130000Y-116750000D01*
G75*
G02*
X189030000Y-116650000I0J100000D01*
G01*
X189030000Y-116390000D01*
G75*
G02*
X189130000Y-116290000I100000J0D01*
G01*
G37*
%TD.AperFunction*%
%TO.P,r4,2*%
%TO.N,Net-(1k2-Pad2)*%
%TA.AperFunction,SMDPad,CuDef*%
G36*
G01*
X189130000Y-116930000D02*
X189330000Y-116930000D01*
G75*
G02*
X189430000Y-117030000I0J-100000D01*
G01*
X189430000Y-117290000D01*
G75*
G02*
X189330000Y-117390000I-100000J0D01*
G01*
X189130000Y-117390000D01*
G75*
G02*
X189030000Y-117290000I0J100000D01*
G01*
X189030000Y-117030000D01*
G75*
G02*
X189130000Y-116930000I100000J0D01*
G01*
G37*
%TD.AperFunction*%
%TD*%
%TO.P,R3,1*%
%TO.N,Net-(1k2-Pad2)*%
%TA.AperFunction,SMDPad,CuDef*%
G36*
G01*
X181060000Y-111860000D02*
X181060000Y-111660000D01*
G75*
G02*
X181160000Y-111560000I100000J0D01*
G01*
X181420000Y-111560000D01*
G75*
G02*
X181520000Y-111660000I0J-100000D01*
G01*
X181520000Y-111860000D01*
G75*
G02*
X181420000Y-111960000I-100000J0D01*
G01*
X181160000Y-111960000D01*
G75*
G02*
X181060000Y-111860000I0J100000D01*
G01*
G37*
%TD.AperFunction*%
%TO.P,R3,2*%
%TO.N,Net-(C1-Pad1)*%
%TA.AperFunction,SMDPad,CuDef*%
G36*
G01*
X181700000Y-111860000D02*
X181700000Y-111660000D01*
G75*
G02*
X181800000Y-111560000I100000J0D01*
G01*
X182060000Y-111560000D01*
G75*
G02*
X182160000Y-111660000I0J-100000D01*
G01*
X182160000Y-111860000D01*
G75*
G02*
X182060000Y-111960000I-100000J0D01*
G01*
X181800000Y-111960000D01*
G75*
G02*
X181700000Y-111860000I0J100000D01*
G01*
G37*
%TD.AperFunction*%
%TD*%
%TO.P,R2,1*%
%TO.N,Net-(R1-Pad1)*%
%TA.AperFunction,SMDPad,CuDef*%
G36*
G01*
X162010000Y-100430000D02*
X162010000Y-100230000D01*
G75*
G02*
X162110000Y-100130000I100000J0D01*
G01*
X162370000Y-100130000D01*
G75*
G02*
X162470000Y-100230000I0J-100000D01*
G01*
X162470000Y-100430000D01*
G75*
G02*
X162370000Y-100530000I-100000J0D01*
G01*
X162110000Y-100530000D01*
G75*
G02*
X162010000Y-100430000I0J100000D01*
G01*
G37*
%TD.AperFunction*%
%TO.P,R2,2*%
%TO.N,Net-(C1-Pad2)*%
%TA.AperFunction,SMDPad,CuDef*%
G36*
G01*
X162650000Y-100430000D02*
X162650000Y-100230000D01*
G75*
G02*
X162750000Y-100130000I100000J0D01*
G01*
X163010000Y-100130000D01*
G75*
G02*
X163110000Y-100230000I0J-100000D01*
G01*
X163110000Y-100430000D01*
G75*
G02*
X163010000Y-100530000I-100000J0D01*
G01*
X162750000Y-100530000D01*
G75*
G02*
X162650000Y-100430000I0J100000D01*
G01*
G37*
%TD.AperFunction*%
%TD*%
%TO.P,R1,1*%
%TO.N,Net-(R1-Pad1)*%
%TA.AperFunction,SMDPad,CuDef*%
G36*
G01*
X154390000Y-100430000D02*
X154390000Y-100230000D01*
G75*
G02*
X154490000Y-100130000I100000J0D01*
G01*
X154750000Y-100130000D01*
G75*
G02*
X154850000Y-100230000I0J-100000D01*
G01*
X154850000Y-100430000D01*
G75*
G02*
X154750000Y-100530000I-100000J0D01*
G01*
X154490000Y-100530000D01*
G75*
G02*
X154390000Y-100430000I0J100000D01*
G01*
G37*
%TD.AperFunction*%
%TO.P,R1,2*%
%TO.N,Net-(R1-Pad2)*%
%TA.AperFunction,SMDPad,CuDef*%
G36*
G01*
X155030000Y-100430000D02*
X155030000Y-100230000D01*
G75*
G02*
X155130000Y-100130000I100000J0D01*
G01*
X155390000Y-100130000D01*
G75*
G02*
X155490000Y-100230000I0J-100000D01*
G01*
X155490000Y-100430000D01*
G75*
G02*
X155390000Y-100530000I-100000J0D01*
G01*
X155130000Y-100530000D01*
G75*
G02*
X155030000Y-100430000I0J100000D01*
G01*
G37*
%TD.AperFunction*%
%TD*%
%TO.P,D2,1*%
%TO.N,Net-(D1-Pad2)*%
%TA.AperFunction,SMDPad,CuDef*%
G36*
G01*
X225510000Y-132180000D02*
X225510000Y-131980000D01*
G75*
G02*
X225610000Y-131880000I100000J0D01*
G01*
X225870000Y-131880000D01*
G75*
G02*
X225970000Y-131980000I0J-100000D01*
G01*
X225970000Y-132180000D01*
G75*
G02*
X225870000Y-132280000I-100000J0D01*
G01*
X225610000Y-132280000D01*
G75*
G02*
X225510000Y-132180000I0J100000D01*
G01*
G37*
%TD.AperFunction*%
%TO.P,D2,2*%
%TO.N,Net-(1k2-Pad2)*%
%TA.AperFunction,SMDPad,CuDef*%
G36*
G01*
X226150000Y-132180000D02*
X226150000Y-131980000D01*
G75*
G02*
X226250000Y-131880000I100000J0D01*
G01*
X226510000Y-131880000D01*
G75*
G02*
X226610000Y-131980000I0J-100000D01*
G01*
X226610000Y-132180000D01*
G75*
G02*
X226510000Y-132280000I-100000J0D01*
G01*
X226250000Y-132280000D01*
G75*
G02*
X226150000Y-132180000I0J100000D01*
G01*
G37*
%TD.AperFunction*%
%TD*%
%TO.P,D1,1*%
%TO.N,Net-(D1-Pad1)*%
%TA.AperFunction,SMDPad,CuDef*%
G36*
G01*
X226610000Y-120550000D02*
X226610000Y-120750000D01*
G75*
G02*
X226510000Y-120850000I-100000J0D01*
G01*
X226250000Y-120850000D01*
G75*
G02*
X226150000Y-120750000I0J100000D01*
G01*
X226150000Y-120550000D01*
G75*
G02*
X226250000Y-120450000I100000J0D01*
G01*
X226510000Y-120450000D01*
G75*
G02*
X226610000Y-120550000I0J-100000D01*
G01*
G37*
%TD.AperFunction*%
%TO.P,D1,2*%
%TO.N,Net-(D1-Pad2)*%
%TA.AperFunction,SMDPad,CuDef*%
G36*
G01*
X225970000Y-120550000D02*
X225970000Y-120750000D01*
G75*
G02*
X225870000Y-120850000I-100000J0D01*
G01*
X225610000Y-120850000D01*
G75*
G02*
X225510000Y-120750000I0J100000D01*
G01*
X225510000Y-120550000D01*
G75*
G02*
X225610000Y-120450000I100000J0D01*
G01*
X225870000Y-120450000D01*
G75*
G02*
X225970000Y-120550000I0J-100000D01*
G01*
G37*
%TD.AperFunction*%
%TD*%
%TO.P,C2,2*%
%TO.N,Net-(1k2-Pad2)*%
%TA.AperFunction,SMDPad,CuDef*%
G36*
G01*
X200680000Y-121420000D02*
X199580000Y-121420000D01*
G75*
G02*
X199330000Y-121170000I0J250000D01*
G01*
X199330000Y-119070000D01*
G75*
G02*
X199580000Y-118820000I250000J0D01*
G01*
X200680000Y-118820000D01*
G75*
G02*
X200930000Y-119070000I0J-250000D01*
G01*
X200930000Y-121170000D01*
G75*
G02*
X200680000Y-121420000I-250000J0D01*
G01*
G37*
%TD.AperFunction*%
%TO.P,C2,1*%
%TO.N,Net-(C2-Pad1)*%
%TA.AperFunction,SMDPad,CuDef*%
G36*
G01*
X200680000Y-125020000D02*
X199580000Y-125020000D01*
G75*
G02*
X199330000Y-124770000I0J250000D01*
G01*
X199330000Y-122670000D01*
G75*
G02*
X199580000Y-122420000I250000J0D01*
G01*
X200680000Y-122420000D01*
G75*
G02*
X200930000Y-122670000I0J-250000D01*
G01*
X200930000Y-124770000D01*
G75*
G02*
X200680000Y-125020000I-250000J0D01*
G01*
G37*
%TD.AperFunction*%
%TD*%
%TO.P,C1,2*%
%TO.N,Net-(C1-Pad2)*%
%TA.AperFunction,SMDPad,CuDef*%
G36*
G01*
X181995001Y-104075001D02*
X181995001Y-102975001D01*
G75*
G02*
X182245001Y-102725001I250000J0D01*
G01*
X183945001Y-102725001D01*
G75*
G02*
X184195001Y-102975001I0J-250000D01*
G01*
X184195001Y-104075001D01*
G75*
G02*
X183945001Y-104325001I-250000J0D01*
G01*
X182245001Y-104325001D01*
G75*
G02*
X181995001Y-104075001I0J250000D01*
G01*
G37*
%TD.AperFunction*%
%TO.P,C1,1*%
%TO.N,Net-(C1-Pad1)*%
%TA.AperFunction,SMDPad,CuDef*%
G36*
G01*
X178995001Y-104075001D02*
X178995001Y-102975001D01*
G75*
G02*
X179245001Y-102725001I250000J0D01*
G01*
X180945001Y-102725001D01*
G75*
G02*
X181195001Y-102975001I0J-250000D01*
G01*
X181195001Y-104075001D01*
G75*
G02*
X180945001Y-104325001I-250000J0D01*
G01*
X179245001Y-104325001D01*
G75*
G02*
X178995001Y-104075001I0J250000D01*
G01*
G37*
%TD.AperFunction*%
%TD*%
D14*
%TO.N,Net-(C1-Pad2)*%
X182308191Y-103525001D02*
X183095001Y-103525001D01*
X179389238Y-100606048D02*
X182308191Y-103525001D01*
X162795010Y-100606048D02*
X179389238Y-100606048D01*
X152364999Y-111045001D02*
X149145001Y-111045001D01*
X162880000Y-100530000D02*
X152364999Y-111045001D01*
X162880000Y-100330000D02*
X162880000Y-100530000D01*
%TO.N,Net-(C1-Pad1)*%
X181930000Y-105360000D02*
X181930000Y-111760000D01*
X180095001Y-103525001D02*
X181930000Y-105360000D01*
X183110010Y-110579990D02*
X181930000Y-111760000D01*
X190429990Y-110579990D02*
X183110010Y-110579990D01*
X191770000Y-111920000D02*
X190429990Y-110579990D01*
%TO.N,Net-(C2-Pad1)*%
X186925010Y-125814990D02*
X187010000Y-125730000D01*
X198120000Y-125730000D02*
X200130000Y-123720000D01*
X187010000Y-125730000D02*
X198120000Y-125730000D01*
X196850000Y-127000000D02*
X200130000Y-123720000D01*
X196850000Y-138270000D02*
X196850000Y-127000000D01*
%TO.N,Net-(D1-Pad2)*%
X220030000Y-138430000D02*
X220030000Y-137874990D01*
X220030000Y-137874990D02*
X225824990Y-132080000D01*
X225740000Y-132080000D02*
X225740000Y-120734990D01*
X225740000Y-120734990D02*
X225824990Y-120650000D01*
%TO.N,Net-(1k2-Pad2)*%
X149145001Y-105965001D02*
X149145001Y-108505001D01*
%TO.N,Net-(R1-Pad2)*%
X155260000Y-100521058D02*
X155260000Y-100330000D01*
X152356057Y-103425001D02*
X155260000Y-100521058D01*
X149145001Y-103425001D02*
X152356057Y-103425001D01*
%TO.N,Net-(R1-Pad1)*%
X154620000Y-95570000D02*
X154620000Y-100330000D01*
X156210000Y-93980000D02*
X154620000Y-95570000D01*
X162240000Y-100010000D02*
X156210000Y-93980000D01*
X162240000Y-100330000D02*
X162240000Y-100010000D01*
%TO.N,Net-(R5-Pad2)*%
X189230000Y-112600000D02*
X189230000Y-111920000D01*
X186890000Y-114940000D02*
X189230000Y-112600000D01*
X186690000Y-114940000D02*
X186890000Y-114940000D01*
X186690000Y-114940000D02*
X187565010Y-114940000D01*
X189145010Y-116520000D02*
X189230000Y-116520000D01*
X187565010Y-114940000D02*
X189145010Y-116520000D01*
%TO.N,Net-(R5-Pad1)*%
X186370000Y-125410000D02*
X186370000Y-125730000D01*
X186690000Y-114300000D02*
X186690000Y-111920000D01*
X186370000Y-125538942D02*
X186370000Y-125730000D01*
X189813952Y-122094990D02*
X186370000Y-125538942D01*
X201255010Y-122431820D02*
X200918180Y-122094990D01*
X201255010Y-137229988D02*
X201255010Y-122431820D01*
X201039999Y-137444999D02*
X201255010Y-137229988D01*
X201039999Y-139095001D02*
X201039999Y-137444999D01*
X227685011Y-131606047D02*
X220131057Y-139160001D01*
X200918180Y-122094990D02*
X189813952Y-122094990D01*
X227685011Y-113003599D02*
X227685011Y-131606047D01*
X201104999Y-139160001D02*
X201039999Y-139095001D01*
X206938601Y-112674989D02*
X227356402Y-112674990D01*
X202393591Y-117219999D02*
X206938601Y-112674989D01*
X227356402Y-112674990D02*
X227685011Y-113003599D01*
X190120001Y-117219999D02*
X202393591Y-117219999D01*
X190120001Y-111492799D02*
X190120001Y-117219999D01*
X220131057Y-139160001D02*
X201104999Y-139160001D01*
X189657201Y-111029999D02*
X190120001Y-111492799D01*
X188802799Y-111029999D02*
X189657201Y-111029999D01*
X186690000Y-113142798D02*
X188802799Y-111029999D01*
X186690000Y-114300000D02*
X186690000Y-113142798D01*
%TO.N,Net-(R8-Pad1)*%
X219474990Y-138194990D02*
X219474990Y-138430000D01*
X213360000Y-132080000D02*
X219474990Y-138194990D01*
X201930000Y-138270000D02*
X207170000Y-138270000D01*
X207170000Y-138270000D02*
X213360000Y-132080000D01*
%TO.N,Net-(1k2-Pad2)*%
X170176410Y-128270000D02*
X168910000Y-128270000D01*
X181290000Y-111760000D02*
X181290000Y-117156410D01*
X181293590Y-117160000D02*
X181290000Y-117156410D01*
X189230000Y-117160000D02*
X181293590Y-117160000D01*
X178326410Y-120120000D02*
X177798205Y-120648205D01*
X200130000Y-120120000D02*
X178326410Y-120120000D01*
X177798205Y-120648205D02*
X170176410Y-128270000D01*
X181290000Y-117156410D02*
X177798205Y-120648205D01*
X168910000Y-128270000D02*
X168910000Y-137160000D01*
X227235001Y-131224999D02*
X226380000Y-132080000D01*
X227170001Y-113124999D02*
X227235001Y-113189999D01*
X207125001Y-113124999D02*
X227170001Y-113124999D01*
X227235001Y-113189999D02*
X227235001Y-131224999D01*
X200130000Y-120120000D02*
X207125001Y-113124999D01*
%TO.N,Net-(D1-Pad1)*%
X226380000Y-120458942D02*
X226380000Y-120650000D01*
X226060000Y-120138942D02*
X226380000Y-120458942D01*
X226060000Y-114300000D02*
X226060000Y-120138942D01*
%TD*%
M02*
