%TF.GenerationSoftware,KiCad,Pcbnew,(5.1.10)-1*%
%TF.CreationDate,2021-11-07T17:05:45-05:00*%
%TF.ProjectId,kicad,6b696361-642e-46b6-9963-61645f706362,rev?*%
%TF.SameCoordinates,Original*%
%TF.FileFunction,Soldermask,Top*%
%TF.FilePolarity,Negative*%
%FSLAX46Y46*%
G04 Gerber Fmt 4.6, Leading zero omitted, Abs format (unit mm)*
G04 Created by KiCad (PCBNEW (5.1.10)-1) date 2021-11-07 17:05:45*
%MOMM*%
%LPD*%
G01*
G04 APERTURE LIST*
%ADD10R,1.130000X1.130000*%
%ADD11C,1.130000*%
%ADD12R,1.700000X1.700000*%
%ADD13O,1.700000X1.700000*%
G04 APERTURE END LIST*
D10*
%TO.C,U3*%
X201930000Y-138270000D03*
D11*
X199390000Y-138270000D03*
X196850000Y-138270000D03*
X194310000Y-138270000D03*
X194310000Y-146210000D03*
X196850000Y-146210000D03*
X199390000Y-146210000D03*
X201930000Y-146210000D03*
%TD*%
D12*
%TO.C,Vin2*%
X226060000Y-114300000D03*
%TD*%
%TO.C,Vin1*%
X156210000Y-93980000D03*
%TD*%
D11*
%TO.C,U2*%
X186690000Y-103980000D03*
X189230000Y-103980000D03*
X191770000Y-103980000D03*
X194310000Y-103980000D03*
X194310000Y-111920000D03*
X191770000Y-111920000D03*
X189230000Y-111920000D03*
D10*
X186690000Y-111920000D03*
%TD*%
D12*
%TO.C,U1*%
X149145001Y-103425001D03*
D13*
X149145001Y-105965001D03*
X149145001Y-108505001D03*
X149145001Y-111045001D03*
X149145001Y-113585001D03*
X149145001Y-116125001D03*
X149145001Y-118665001D03*
X149145001Y-121205001D03*
%TD*%
%TO.C,R9*%
G36*
G01*
X220260000Y-138330000D02*
X220260000Y-138530000D01*
G75*
G02*
X220160000Y-138630000I-100000J0D01*
G01*
X219900000Y-138630000D01*
G75*
G02*
X219800000Y-138530000I0J100000D01*
G01*
X219800000Y-138330000D01*
G75*
G02*
X219900000Y-138230000I100000J0D01*
G01*
X220160000Y-138230000D01*
G75*
G02*
X220260000Y-138330000I0J-100000D01*
G01*
G37*
G36*
G01*
X219620000Y-138330000D02*
X219620000Y-138530000D01*
G75*
G02*
X219520000Y-138630000I-100000J0D01*
G01*
X219260000Y-138630000D01*
G75*
G02*
X219160000Y-138530000I0J100000D01*
G01*
X219160000Y-138330000D01*
G75*
G02*
X219260000Y-138230000I100000J0D01*
G01*
X219520000Y-138230000D01*
G75*
G02*
X219620000Y-138330000I0J-100000D01*
G01*
G37*
%TD*%
%TO.C,R6*%
G36*
G01*
X186140000Y-125830000D02*
X186140000Y-125630000D01*
G75*
G02*
X186240000Y-125530000I100000J0D01*
G01*
X186500000Y-125530000D01*
G75*
G02*
X186600000Y-125630000I0J-100000D01*
G01*
X186600000Y-125830000D01*
G75*
G02*
X186500000Y-125930000I-100000J0D01*
G01*
X186240000Y-125930000D01*
G75*
G02*
X186140000Y-125830000I0J100000D01*
G01*
G37*
G36*
G01*
X186780000Y-125830000D02*
X186780000Y-125630000D01*
G75*
G02*
X186880000Y-125530000I100000J0D01*
G01*
X187140000Y-125530000D01*
G75*
G02*
X187240000Y-125630000I0J-100000D01*
G01*
X187240000Y-125830000D01*
G75*
G02*
X187140000Y-125930000I-100000J0D01*
G01*
X186880000Y-125930000D01*
G75*
G02*
X186780000Y-125830000I0J100000D01*
G01*
G37*
%TD*%
%TO.C,R5*%
G36*
G01*
X186590000Y-114710000D02*
X186790000Y-114710000D01*
G75*
G02*
X186890000Y-114810000I0J-100000D01*
G01*
X186890000Y-115070000D01*
G75*
G02*
X186790000Y-115170000I-100000J0D01*
G01*
X186590000Y-115170000D01*
G75*
G02*
X186490000Y-115070000I0J100000D01*
G01*
X186490000Y-114810000D01*
G75*
G02*
X186590000Y-114710000I100000J0D01*
G01*
G37*
G36*
G01*
X186590000Y-114070000D02*
X186790000Y-114070000D01*
G75*
G02*
X186890000Y-114170000I0J-100000D01*
G01*
X186890000Y-114430000D01*
G75*
G02*
X186790000Y-114530000I-100000J0D01*
G01*
X186590000Y-114530000D01*
G75*
G02*
X186490000Y-114430000I0J100000D01*
G01*
X186490000Y-114170000D01*
G75*
G02*
X186590000Y-114070000I100000J0D01*
G01*
G37*
%TD*%
%TO.C,r4*%
G36*
G01*
X189130000Y-116290000D02*
X189330000Y-116290000D01*
G75*
G02*
X189430000Y-116390000I0J-100000D01*
G01*
X189430000Y-116650000D01*
G75*
G02*
X189330000Y-116750000I-100000J0D01*
G01*
X189130000Y-116750000D01*
G75*
G02*
X189030000Y-116650000I0J100000D01*
G01*
X189030000Y-116390000D01*
G75*
G02*
X189130000Y-116290000I100000J0D01*
G01*
G37*
G36*
G01*
X189130000Y-116930000D02*
X189330000Y-116930000D01*
G75*
G02*
X189430000Y-117030000I0J-100000D01*
G01*
X189430000Y-117290000D01*
G75*
G02*
X189330000Y-117390000I-100000J0D01*
G01*
X189130000Y-117390000D01*
G75*
G02*
X189030000Y-117290000I0J100000D01*
G01*
X189030000Y-117030000D01*
G75*
G02*
X189130000Y-116930000I100000J0D01*
G01*
G37*
%TD*%
%TO.C,R3*%
G36*
G01*
X181060000Y-111860000D02*
X181060000Y-111660000D01*
G75*
G02*
X181160000Y-111560000I100000J0D01*
G01*
X181420000Y-111560000D01*
G75*
G02*
X181520000Y-111660000I0J-100000D01*
G01*
X181520000Y-111860000D01*
G75*
G02*
X181420000Y-111960000I-100000J0D01*
G01*
X181160000Y-111960000D01*
G75*
G02*
X181060000Y-111860000I0J100000D01*
G01*
G37*
G36*
G01*
X181700000Y-111860000D02*
X181700000Y-111660000D01*
G75*
G02*
X181800000Y-111560000I100000J0D01*
G01*
X182060000Y-111560000D01*
G75*
G02*
X182160000Y-111660000I0J-100000D01*
G01*
X182160000Y-111860000D01*
G75*
G02*
X182060000Y-111960000I-100000J0D01*
G01*
X181800000Y-111960000D01*
G75*
G02*
X181700000Y-111860000I0J100000D01*
G01*
G37*
%TD*%
%TO.C,R2*%
G36*
G01*
X162010000Y-100430000D02*
X162010000Y-100230000D01*
G75*
G02*
X162110000Y-100130000I100000J0D01*
G01*
X162370000Y-100130000D01*
G75*
G02*
X162470000Y-100230000I0J-100000D01*
G01*
X162470000Y-100430000D01*
G75*
G02*
X162370000Y-100530000I-100000J0D01*
G01*
X162110000Y-100530000D01*
G75*
G02*
X162010000Y-100430000I0J100000D01*
G01*
G37*
G36*
G01*
X162650000Y-100430000D02*
X162650000Y-100230000D01*
G75*
G02*
X162750000Y-100130000I100000J0D01*
G01*
X163010000Y-100130000D01*
G75*
G02*
X163110000Y-100230000I0J-100000D01*
G01*
X163110000Y-100430000D01*
G75*
G02*
X163010000Y-100530000I-100000J0D01*
G01*
X162750000Y-100530000D01*
G75*
G02*
X162650000Y-100430000I0J100000D01*
G01*
G37*
%TD*%
%TO.C,R1*%
G36*
G01*
X154390000Y-100430000D02*
X154390000Y-100230000D01*
G75*
G02*
X154490000Y-100130000I100000J0D01*
G01*
X154750000Y-100130000D01*
G75*
G02*
X154850000Y-100230000I0J-100000D01*
G01*
X154850000Y-100430000D01*
G75*
G02*
X154750000Y-100530000I-100000J0D01*
G01*
X154490000Y-100530000D01*
G75*
G02*
X154390000Y-100430000I0J100000D01*
G01*
G37*
G36*
G01*
X155030000Y-100430000D02*
X155030000Y-100230000D01*
G75*
G02*
X155130000Y-100130000I100000J0D01*
G01*
X155390000Y-100130000D01*
G75*
G02*
X155490000Y-100230000I0J-100000D01*
G01*
X155490000Y-100430000D01*
G75*
G02*
X155390000Y-100530000I-100000J0D01*
G01*
X155130000Y-100530000D01*
G75*
G02*
X155030000Y-100430000I0J100000D01*
G01*
G37*
%TD*%
D12*
%TO.C,gnd1*%
X168910000Y-137160000D03*
%TD*%
%TO.C,D2*%
G36*
G01*
X225510000Y-132180000D02*
X225510000Y-131980000D01*
G75*
G02*
X225610000Y-131880000I100000J0D01*
G01*
X225870000Y-131880000D01*
G75*
G02*
X225970000Y-131980000I0J-100000D01*
G01*
X225970000Y-132180000D01*
G75*
G02*
X225870000Y-132280000I-100000J0D01*
G01*
X225610000Y-132280000D01*
G75*
G02*
X225510000Y-132180000I0J100000D01*
G01*
G37*
G36*
G01*
X226150000Y-132180000D02*
X226150000Y-131980000D01*
G75*
G02*
X226250000Y-131880000I100000J0D01*
G01*
X226510000Y-131880000D01*
G75*
G02*
X226610000Y-131980000I0J-100000D01*
G01*
X226610000Y-132180000D01*
G75*
G02*
X226510000Y-132280000I-100000J0D01*
G01*
X226250000Y-132280000D01*
G75*
G02*
X226150000Y-132180000I0J100000D01*
G01*
G37*
%TD*%
%TO.C,D1*%
G36*
G01*
X226610000Y-120550000D02*
X226610000Y-120750000D01*
G75*
G02*
X226510000Y-120850000I-100000J0D01*
G01*
X226250000Y-120850000D01*
G75*
G02*
X226150000Y-120750000I0J100000D01*
G01*
X226150000Y-120550000D01*
G75*
G02*
X226250000Y-120450000I100000J0D01*
G01*
X226510000Y-120450000D01*
G75*
G02*
X226610000Y-120550000I0J-100000D01*
G01*
G37*
G36*
G01*
X225970000Y-120550000D02*
X225970000Y-120750000D01*
G75*
G02*
X225870000Y-120850000I-100000J0D01*
G01*
X225610000Y-120850000D01*
G75*
G02*
X225510000Y-120750000I0J100000D01*
G01*
X225510000Y-120550000D01*
G75*
G02*
X225610000Y-120450000I100000J0D01*
G01*
X225870000Y-120450000D01*
G75*
G02*
X225970000Y-120550000I0J-100000D01*
G01*
G37*
%TD*%
%TO.C,C2*%
G36*
G01*
X200680000Y-121420000D02*
X199580000Y-121420000D01*
G75*
G02*
X199330000Y-121170000I0J250000D01*
G01*
X199330000Y-119070000D01*
G75*
G02*
X199580000Y-118820000I250000J0D01*
G01*
X200680000Y-118820000D01*
G75*
G02*
X200930000Y-119070000I0J-250000D01*
G01*
X200930000Y-121170000D01*
G75*
G02*
X200680000Y-121420000I-250000J0D01*
G01*
G37*
G36*
G01*
X200680000Y-125020000D02*
X199580000Y-125020000D01*
G75*
G02*
X199330000Y-124770000I0J250000D01*
G01*
X199330000Y-122670000D01*
G75*
G02*
X199580000Y-122420000I250000J0D01*
G01*
X200680000Y-122420000D01*
G75*
G02*
X200930000Y-122670000I0J-250000D01*
G01*
X200930000Y-124770000D01*
G75*
G02*
X200680000Y-125020000I-250000J0D01*
G01*
G37*
%TD*%
%TO.C,C1*%
G36*
G01*
X181995001Y-104075001D02*
X181995001Y-102975001D01*
G75*
G02*
X182245001Y-102725001I250000J0D01*
G01*
X183945001Y-102725001D01*
G75*
G02*
X184195001Y-102975001I0J-250000D01*
G01*
X184195001Y-104075001D01*
G75*
G02*
X183945001Y-104325001I-250000J0D01*
G01*
X182245001Y-104325001D01*
G75*
G02*
X181995001Y-104075001I0J250000D01*
G01*
G37*
G36*
G01*
X178995001Y-104075001D02*
X178995001Y-102975001D01*
G75*
G02*
X179245001Y-102725001I250000J0D01*
G01*
X180945001Y-102725001D01*
G75*
G02*
X181195001Y-102975001I0J-250000D01*
G01*
X181195001Y-104075001D01*
G75*
G02*
X180945001Y-104325001I-250000J0D01*
G01*
X179245001Y-104325001D01*
G75*
G02*
X178995001Y-104075001I0J250000D01*
G01*
G37*
%TD*%
M02*
